<mxfile host="app.diagrams.net" agent="Mozilla/5.0 (Windows NT 10.0; Win64; x64) AppleWebKit/537.36 (KHTML, like Gecko) Chrome/135.0.0.0 Safari/537.36 Edg/135.0.0.0" version="26.2.14">
  <diagram id="R2lEEEUBdFMjLlhIrx00" name="Page-1">
    <mxGraphModel dx="1418" dy="794" grid="1" gridSize="10" guides="1" tooltips="1" connect="1" arrows="1" fold="1" page="1" pageScale="1" pageWidth="850" pageHeight="1100" math="0" shadow="0" extFonts="Permanent Marker^https://fonts.googleapis.com/css?family=Permanent+Marker">
      <root>
        <mxCell id="0" />
        <mxCell id="1" parent="0" />
        <mxCell id="FcxImMg5sT2_sHitMUej-30" value="" style="group" vertex="1" connectable="0" parent="1">
          <mxGeometry x="30" y="150" width="360" height="220" as="geometry" />
        </mxCell>
        <mxCell id="FcxImMg5sT2_sHitMUej-7" value="" style="edgeStyle=orthogonalEdgeStyle;rounded=0;orthogonalLoop=1;jettySize=auto;html=1;endArrow=none;startFill=0;" edge="1" parent="FcxImMg5sT2_sHitMUej-30" source="FcxImMg5sT2_sHitMUej-2" target="FcxImMg5sT2_sHitMUej-6">
          <mxGeometry relative="1" as="geometry" />
        </mxCell>
        <mxCell id="FcxImMg5sT2_sHitMUej-22" style="rounded=0;orthogonalLoop=1;jettySize=auto;html=1;exitX=0.25;exitY=0;exitDx=0;exitDy=0;entryX=1;entryY=0.5;entryDx=0;entryDy=0;endArrow=none;startFill=0;" edge="1" parent="FcxImMg5sT2_sHitMUej-30" source="FcxImMg5sT2_sHitMUej-2" target="FcxImMg5sT2_sHitMUej-15">
          <mxGeometry relative="1" as="geometry" />
        </mxCell>
        <mxCell id="FcxImMg5sT2_sHitMUej-23" style="rounded=0;orthogonalLoop=1;jettySize=auto;html=1;exitX=0.75;exitY=0;exitDx=0;exitDy=0;entryX=0;entryY=0.75;entryDx=0;entryDy=0;endArrow=none;startFill=0;" edge="1" parent="FcxImMg5sT2_sHitMUej-30" source="FcxImMg5sT2_sHitMUej-2" target="FcxImMg5sT2_sHitMUej-10">
          <mxGeometry relative="1" as="geometry" />
        </mxCell>
        <mxCell id="FcxImMg5sT2_sHitMUej-24" style="rounded=0;orthogonalLoop=1;jettySize=auto;html=1;exitX=1;exitY=0;exitDx=0;exitDy=0;entryX=0;entryY=0.5;entryDx=0;entryDy=0;endArrow=none;startFill=0;" edge="1" parent="FcxImMg5sT2_sHitMUej-30" source="FcxImMg5sT2_sHitMUej-2" target="FcxImMg5sT2_sHitMUej-18">
          <mxGeometry relative="1" as="geometry" />
        </mxCell>
        <mxCell id="FcxImMg5sT2_sHitMUej-25" style="rounded=0;orthogonalLoop=1;jettySize=auto;html=1;exitX=0;exitY=0;exitDx=0;exitDy=0;entryX=1;entryY=0.5;entryDx=0;entryDy=0;endArrow=none;startFill=0;" edge="1" parent="FcxImMg5sT2_sHitMUej-30" source="FcxImMg5sT2_sHitMUej-2" target="FcxImMg5sT2_sHitMUej-17">
          <mxGeometry relative="1" as="geometry" />
        </mxCell>
        <mxCell id="FcxImMg5sT2_sHitMUej-26" style="rounded=0;orthogonalLoop=1;jettySize=auto;html=1;exitX=0;exitY=0.5;exitDx=0;exitDy=0;entryX=1;entryY=0.5;entryDx=0;entryDy=0;endArrow=none;startFill=0;" edge="1" parent="FcxImMg5sT2_sHitMUej-30" source="FcxImMg5sT2_sHitMUej-2" target="FcxImMg5sT2_sHitMUej-16">
          <mxGeometry relative="1" as="geometry" />
        </mxCell>
        <mxCell id="FcxImMg5sT2_sHitMUej-27" style="rounded=0;orthogonalLoop=1;jettySize=auto;html=1;exitX=1;exitY=0.5;exitDx=0;exitDy=0;entryX=0;entryY=0.5;entryDx=0;entryDy=0;endArrow=none;startFill=0;" edge="1" parent="FcxImMg5sT2_sHitMUej-30" source="FcxImMg5sT2_sHitMUej-2" target="FcxImMg5sT2_sHitMUej-19">
          <mxGeometry relative="1" as="geometry" />
        </mxCell>
        <mxCell id="FcxImMg5sT2_sHitMUej-28" style="rounded=0;orthogonalLoop=1;jettySize=auto;html=1;exitX=0;exitY=1;exitDx=0;exitDy=0;entryX=1;entryY=0.25;entryDx=0;entryDy=0;endArrow=none;startFill=0;" edge="1" parent="FcxImMg5sT2_sHitMUej-30" source="FcxImMg5sT2_sHitMUej-2" target="FcxImMg5sT2_sHitMUej-20">
          <mxGeometry relative="1" as="geometry" />
        </mxCell>
        <mxCell id="FcxImMg5sT2_sHitMUej-29" style="rounded=0;orthogonalLoop=1;jettySize=auto;html=1;exitX=1;exitY=1;exitDx=0;exitDy=0;entryX=0;entryY=0.25;entryDx=0;entryDy=0;endArrow=none;startFill=0;" edge="1" parent="FcxImMg5sT2_sHitMUej-30" source="FcxImMg5sT2_sHitMUej-2" target="FcxImMg5sT2_sHitMUej-21">
          <mxGeometry relative="1" as="geometry" />
        </mxCell>
        <mxCell id="FcxImMg5sT2_sHitMUej-2" value="&lt;font style=&quot;font-size: 20px;&quot;&gt;教师&lt;/font&gt;&lt;span style=&quot;font-size: 20px;&quot;&gt;表&lt;/span&gt;" style="rounded=0;whiteSpace=wrap;html=1;" vertex="1" parent="FcxImMg5sT2_sHitMUej-30">
          <mxGeometry x="120" y="90" width="120" height="60" as="geometry" />
        </mxCell>
        <mxCell id="FcxImMg5sT2_sHitMUej-6" value="&lt;font style=&quot;font-size: 20px;&quot;&gt;&lt;u&gt;教师ID&lt;/u&gt;&lt;/font&gt;" style="rounded=1;whiteSpace=wrap;html=1;arcSize=50;" vertex="1" parent="FcxImMg5sT2_sHitMUej-30">
          <mxGeometry x="130" width="100" height="40" as="geometry" />
        </mxCell>
        <mxCell id="FcxImMg5sT2_sHitMUej-10" value="&lt;font style=&quot;font-size: 20px;&quot;&gt;密码&lt;/font&gt;" style="rounded=1;whiteSpace=wrap;html=1;arcSize=50;" vertex="1" parent="FcxImMg5sT2_sHitMUej-30">
          <mxGeometry x="260" width="100" height="40" as="geometry" />
        </mxCell>
        <mxCell id="FcxImMg5sT2_sHitMUej-15" value="&lt;font style=&quot;font-size: 20px;&quot;&gt;姓名&lt;/font&gt;" style="rounded=1;whiteSpace=wrap;html=1;arcSize=50;" vertex="1" parent="FcxImMg5sT2_sHitMUej-30">
          <mxGeometry width="100" height="40" as="geometry" />
        </mxCell>
        <mxCell id="FcxImMg5sT2_sHitMUej-16" value="&lt;font style=&quot;font-size: 20px;&quot;&gt;邮箱&lt;/font&gt;&lt;span style=&quot;color: rgba(0, 0, 0, 0); font-family: monospace; font-size: 0px; text-align: start; text-wrap-mode: nowrap;&quot;&gt;%3CmxGraphModel%3E%3Croot%3E%3CmxCell%20id%3D%220%22%2F%3E%3CmxCell%20id%3D%221%22%20parent%3D%220%22%2F%3E%3CmxCell%20id%3D%222%22%20value%3D%22%26lt%3Bfont%20style%3D%26quot%3Bfont-size%3A%2020px%3B%26quot%3B%26gt%3B%E5%A7%93%E5%90%8D%26lt%3B%2Ffont%26gt%3B%22%20style%3D%22rounded%3D1%3BwhiteSpace%3Dwrap%3Bhtml%3D1%3BarcSize%3D50%3B%22%20vertex%3D%221%22%20parent%3D%221%22%3E%3CmxGeometry%20x%3D%2230%22%20y%3D%22150%22%20width%3D%22100%22%20height%3D%2240%22%20as%3D%22geometry%22%2F%3E%3C%2FmxCell%3E%3C%2Froot%3E%3C%2FmxGraphModel%3E&lt;/span&gt;" style="rounded=1;whiteSpace=wrap;html=1;arcSize=50;" vertex="1" parent="FcxImMg5sT2_sHitMUej-30">
          <mxGeometry y="120" width="100" height="40" as="geometry" />
        </mxCell>
        <mxCell id="FcxImMg5sT2_sHitMUej-17" value="&lt;font style=&quot;font-size: 20px;&quot;&gt;电话&lt;/font&gt;" style="rounded=1;whiteSpace=wrap;html=1;arcSize=50;" vertex="1" parent="FcxImMg5sT2_sHitMUej-30">
          <mxGeometry y="60" width="100" height="40" as="geometry" />
        </mxCell>
        <mxCell id="FcxImMg5sT2_sHitMUej-18" value="&lt;span style=&quot;font-size: 20px;&quot;&gt;生日&lt;/span&gt;" style="rounded=1;whiteSpace=wrap;html=1;arcSize=50;" vertex="1" parent="FcxImMg5sT2_sHitMUej-30">
          <mxGeometry x="260" y="60" width="100" height="40" as="geometry" />
        </mxCell>
        <mxCell id="FcxImMg5sT2_sHitMUej-19" value="&lt;font style=&quot;font-size: 20px;&quot;&gt;性别&lt;/font&gt;&lt;span style=&quot;color: rgba(0, 0, 0, 0); font-family: monospace; font-size: 0px; text-align: start; text-wrap-mode: nowrap;&quot;&gt;%3CmxGraphModel%3E%3Croot%3E%3CmxCell%20id%3D%220%22%2F%3E%3CmxCell%20id%3D%221%22%20parent%3D%220%22%2F%3E%3CmxCell%20id%3D%222%22%20value%3D%22%26lt%3Bfont%20style%3D%26quot%3Bfont-size%3A%2020px%3B%26quot%3B%26gt%3B%E5%A7%93%E5%90%8D%26lt%3B%2Ffont%26gt%3B%22%20style%3D%22rounded%3D1%3BwhiteSpace%3Dwrap%3Bhtml%3D1%3BarcSize%3D50%3B%22%20vertex%3D%221%22%20parent%3D%221%22%3E%3CmxGeometry%20x%3D%2230%22%20y%3D%22150%22%20width%3D%22100%22%20height%3D%2240%22%20as%3D%22geometry%22%2F%3E%3C%2FmxCell%3E%3C%2Froot%3E%3C%2FmxGraphModel%3E&lt;/span&gt;" style="rounded=1;whiteSpace=wrap;html=1;arcSize=50;" vertex="1" parent="FcxImMg5sT2_sHitMUej-30">
          <mxGeometry x="260" y="120" width="100" height="40" as="geometry" />
        </mxCell>
        <mxCell id="FcxImMg5sT2_sHitMUej-20" value="&lt;font style=&quot;font-size: 20px;&quot;&gt;学院&lt;/font&gt;" style="rounded=1;whiteSpace=wrap;html=1;arcSize=50;" vertex="1" parent="FcxImMg5sT2_sHitMUej-30">
          <mxGeometry y="180" width="100" height="40" as="geometry" />
        </mxCell>
        <mxCell id="FcxImMg5sT2_sHitMUej-21" value="&lt;font style=&quot;font-size: 20px;&quot;&gt;头像&lt;/font&gt;" style="rounded=1;whiteSpace=wrap;html=1;arcSize=50;" vertex="1" parent="FcxImMg5sT2_sHitMUej-30">
          <mxGeometry x="260" y="180" width="100" height="40" as="geometry" />
        </mxCell>
        <mxCell id="FcxImMg5sT2_sHitMUej-31" value="" style="group" vertex="1" connectable="0" parent="1">
          <mxGeometry x="450" y="150" width="360" height="220" as="geometry" />
        </mxCell>
        <mxCell id="FcxImMg5sT2_sHitMUej-32" value="" style="edgeStyle=orthogonalEdgeStyle;rounded=0;orthogonalLoop=1;jettySize=auto;html=1;endArrow=none;startFill=0;" edge="1" parent="FcxImMg5sT2_sHitMUej-31" source="FcxImMg5sT2_sHitMUej-41" target="FcxImMg5sT2_sHitMUej-42">
          <mxGeometry relative="1" as="geometry" />
        </mxCell>
        <mxCell id="FcxImMg5sT2_sHitMUej-33" style="rounded=0;orthogonalLoop=1;jettySize=auto;html=1;exitX=0.25;exitY=0;exitDx=0;exitDy=0;entryX=1;entryY=0.5;entryDx=0;entryDy=0;endArrow=none;startFill=0;" edge="1" parent="FcxImMg5sT2_sHitMUej-31" source="FcxImMg5sT2_sHitMUej-41" target="FcxImMg5sT2_sHitMUej-44">
          <mxGeometry relative="1" as="geometry" />
        </mxCell>
        <mxCell id="FcxImMg5sT2_sHitMUej-34" style="rounded=0;orthogonalLoop=1;jettySize=auto;html=1;exitX=0.75;exitY=0;exitDx=0;exitDy=0;entryX=0;entryY=0.75;entryDx=0;entryDy=0;endArrow=none;startFill=0;" edge="1" parent="FcxImMg5sT2_sHitMUej-31" source="FcxImMg5sT2_sHitMUej-41" target="FcxImMg5sT2_sHitMUej-43">
          <mxGeometry relative="1" as="geometry" />
        </mxCell>
        <mxCell id="FcxImMg5sT2_sHitMUej-35" style="rounded=0;orthogonalLoop=1;jettySize=auto;html=1;exitX=1;exitY=0;exitDx=0;exitDy=0;entryX=0;entryY=0.5;entryDx=0;entryDy=0;endArrow=none;startFill=0;" edge="1" parent="FcxImMg5sT2_sHitMUej-31" source="FcxImMg5sT2_sHitMUej-41" target="FcxImMg5sT2_sHitMUej-47">
          <mxGeometry relative="1" as="geometry" />
        </mxCell>
        <mxCell id="FcxImMg5sT2_sHitMUej-36" style="rounded=0;orthogonalLoop=1;jettySize=auto;html=1;exitX=0;exitY=0;exitDx=0;exitDy=0;entryX=1;entryY=0.5;entryDx=0;entryDy=0;endArrow=none;startFill=0;" edge="1" parent="FcxImMg5sT2_sHitMUej-31" source="FcxImMg5sT2_sHitMUej-41" target="FcxImMg5sT2_sHitMUej-46">
          <mxGeometry relative="1" as="geometry" />
        </mxCell>
        <mxCell id="FcxImMg5sT2_sHitMUej-37" style="rounded=0;orthogonalLoop=1;jettySize=auto;html=1;exitX=0;exitY=0.5;exitDx=0;exitDy=0;entryX=1;entryY=0.5;entryDx=0;entryDy=0;endArrow=none;startFill=0;" edge="1" parent="FcxImMg5sT2_sHitMUej-31" source="FcxImMg5sT2_sHitMUej-41" target="FcxImMg5sT2_sHitMUej-45">
          <mxGeometry relative="1" as="geometry" />
        </mxCell>
        <mxCell id="FcxImMg5sT2_sHitMUej-38" style="rounded=0;orthogonalLoop=1;jettySize=auto;html=1;exitX=1;exitY=0.5;exitDx=0;exitDy=0;entryX=0;entryY=0.5;entryDx=0;entryDy=0;endArrow=none;startFill=0;" edge="1" parent="FcxImMg5sT2_sHitMUej-31" source="FcxImMg5sT2_sHitMUej-41" target="FcxImMg5sT2_sHitMUej-48">
          <mxGeometry relative="1" as="geometry" />
        </mxCell>
        <mxCell id="FcxImMg5sT2_sHitMUej-39" style="rounded=0;orthogonalLoop=1;jettySize=auto;html=1;exitX=0;exitY=1;exitDx=0;exitDy=0;entryX=1;entryY=0.25;entryDx=0;entryDy=0;endArrow=none;startFill=0;" edge="1" parent="FcxImMg5sT2_sHitMUej-31" source="FcxImMg5sT2_sHitMUej-41" target="FcxImMg5sT2_sHitMUej-49">
          <mxGeometry relative="1" as="geometry" />
        </mxCell>
        <mxCell id="FcxImMg5sT2_sHitMUej-40" style="rounded=0;orthogonalLoop=1;jettySize=auto;html=1;exitX=1;exitY=1;exitDx=0;exitDy=0;entryX=0;entryY=0.25;entryDx=0;entryDy=0;endArrow=none;startFill=0;" edge="1" parent="FcxImMg5sT2_sHitMUej-31" source="FcxImMg5sT2_sHitMUej-41" target="FcxImMg5sT2_sHitMUej-50">
          <mxGeometry relative="1" as="geometry" />
        </mxCell>
        <mxCell id="FcxImMg5sT2_sHitMUej-41" value="&lt;font style=&quot;font-size: 20px;&quot;&gt;学生&lt;/font&gt;&lt;span style=&quot;font-size: 20px;&quot;&gt;表&lt;/span&gt;" style="rounded=0;whiteSpace=wrap;html=1;" vertex="1" parent="FcxImMg5sT2_sHitMUej-31">
          <mxGeometry x="120" y="90" width="120" height="60" as="geometry" />
        </mxCell>
        <mxCell id="FcxImMg5sT2_sHitMUej-42" value="&lt;font style=&quot;font-size: 20px;&quot;&gt;&lt;u&gt;学生ID&lt;/u&gt;&lt;/font&gt;" style="rounded=1;whiteSpace=wrap;html=1;arcSize=50;" vertex="1" parent="FcxImMg5sT2_sHitMUej-31">
          <mxGeometry x="130" width="100" height="40" as="geometry" />
        </mxCell>
        <mxCell id="FcxImMg5sT2_sHitMUej-43" value="&lt;font style=&quot;font-size: 20px;&quot;&gt;密码&lt;/font&gt;" style="rounded=1;whiteSpace=wrap;html=1;arcSize=50;" vertex="1" parent="FcxImMg5sT2_sHitMUej-31">
          <mxGeometry x="260" width="100" height="40" as="geometry" />
        </mxCell>
        <mxCell id="FcxImMg5sT2_sHitMUej-44" value="&lt;font style=&quot;font-size: 20px;&quot;&gt;姓名&lt;/font&gt;" style="rounded=1;whiteSpace=wrap;html=1;arcSize=50;" vertex="1" parent="FcxImMg5sT2_sHitMUej-31">
          <mxGeometry width="100" height="40" as="geometry" />
        </mxCell>
        <mxCell id="FcxImMg5sT2_sHitMUej-45" value="&lt;font style=&quot;font-size: 20px;&quot;&gt;邮箱&lt;/font&gt;&lt;span style=&quot;color: rgba(0, 0, 0, 0); font-family: monospace; font-size: 0px; text-align: start; text-wrap-mode: nowrap;&quot;&gt;%3CmxGraphModel%3E%3Croot%3E%3CmxCell%20id%3D%220%22%2F%3E%3CmxCell%20id%3D%221%22%20parent%3D%220%22%2F%3E%3CmxCell%20id%3D%222%22%20value%3D%22%26lt%3Bfont%20style%3D%26quot%3Bfont-size%3A%2020px%3B%26quot%3B%26gt%3B%E5%A7%93%E5%90%8D%26lt%3B%2Ffont%26gt%3B%22%20style%3D%22rounded%3D1%3BwhiteSpace%3Dwrap%3Bhtml%3D1%3BarcSize%3D50%3B%22%20vertex%3D%221%22%20parent%3D%221%22%3E%3CmxGeometry%20x%3D%2230%22%20y%3D%22150%22%20width%3D%22100%22%20height%3D%2240%22%20as%3D%22geometry%22%2F%3E%3C%2FmxCell%3E%3C%2Froot%3E%3C%2FmxGraphModel%3E&lt;/span&gt;" style="rounded=1;whiteSpace=wrap;html=1;arcSize=50;" vertex="1" parent="FcxImMg5sT2_sHitMUej-31">
          <mxGeometry y="120" width="100" height="40" as="geometry" />
        </mxCell>
        <mxCell id="FcxImMg5sT2_sHitMUej-46" value="&lt;font style=&quot;font-size: 20px;&quot;&gt;电话&lt;/font&gt;" style="rounded=1;whiteSpace=wrap;html=1;arcSize=50;" vertex="1" parent="FcxImMg5sT2_sHitMUej-31">
          <mxGeometry y="60" width="100" height="40" as="geometry" />
        </mxCell>
        <mxCell id="FcxImMg5sT2_sHitMUej-47" value="&lt;span style=&quot;font-size: 20px;&quot;&gt;生日&lt;/span&gt;" style="rounded=1;whiteSpace=wrap;html=1;arcSize=50;" vertex="1" parent="FcxImMg5sT2_sHitMUej-31">
          <mxGeometry x="260" y="60" width="100" height="40" as="geometry" />
        </mxCell>
        <mxCell id="FcxImMg5sT2_sHitMUej-48" value="&lt;font style=&quot;font-size: 20px;&quot;&gt;性别&lt;/font&gt;&lt;span style=&quot;color: rgba(0, 0, 0, 0); font-family: monospace; font-size: 0px; text-align: start; text-wrap-mode: nowrap;&quot;&gt;%3CmxGraphModel%3E%3Croot%3E%3CmxCell%20id%3D%220%22%2F%3E%3CmxCell%20id%3D%221%22%20parent%3D%220%22%2F%3E%3CmxCell%20id%3D%222%22%20value%3D%22%26lt%3Bfont%20style%3D%26quot%3Bfont-size%3A%2020px%3B%26quot%3B%26gt%3B%E5%A7%93%E5%90%8D%26lt%3B%2Ffont%26gt%3B%22%20style%3D%22rounded%3D1%3BwhiteSpace%3Dwrap%3Bhtml%3D1%3BarcSize%3D50%3B%22%20vertex%3D%221%22%20parent%3D%221%22%3E%3CmxGeometry%20x%3D%2230%22%20y%3D%22150%22%20width%3D%22100%22%20height%3D%2240%22%20as%3D%22geometry%22%2F%3E%3C%2FmxCell%3E%3C%2Froot%3E%3C%2FmxGraphModel%3E&lt;/span&gt;" style="rounded=1;whiteSpace=wrap;html=1;arcSize=50;" vertex="1" parent="FcxImMg5sT2_sHitMUej-31">
          <mxGeometry x="260" y="120" width="100" height="40" as="geometry" />
        </mxCell>
        <mxCell id="FcxImMg5sT2_sHitMUej-49" value="&lt;font style=&quot;font-size: 20px;&quot;&gt;专业&lt;/font&gt;" style="rounded=1;whiteSpace=wrap;html=1;arcSize=50;" vertex="1" parent="FcxImMg5sT2_sHitMUej-31">
          <mxGeometry y="180" width="100" height="40" as="geometry" />
        </mxCell>
        <mxCell id="FcxImMg5sT2_sHitMUej-50" value="&lt;font style=&quot;font-size: 20px;&quot;&gt;头像&lt;/font&gt;" style="rounded=1;whiteSpace=wrap;html=1;arcSize=50;" vertex="1" parent="FcxImMg5sT2_sHitMUej-31">
          <mxGeometry x="260" y="180" width="100" height="40" as="geometry" />
        </mxCell>
        <mxCell id="FcxImMg5sT2_sHitMUej-52" value="" style="rounded=0;orthogonalLoop=1;jettySize=auto;html=1;endArrow=none;startFill=0;" edge="1" parent="FcxImMg5sT2_sHitMUej-31" source="FcxImMg5sT2_sHitMUej-51" target="FcxImMg5sT2_sHitMUej-41">
          <mxGeometry relative="1" as="geometry" />
        </mxCell>
        <mxCell id="FcxImMg5sT2_sHitMUej-51" value="&lt;font style=&quot;font-size: 20px;&quot;&gt;班级&lt;/font&gt;" style="rounded=1;whiteSpace=wrap;html=1;arcSize=50;" vertex="1" parent="FcxImMg5sT2_sHitMUej-31">
          <mxGeometry x="130" y="180" width="100" height="40" as="geometry" />
        </mxCell>
        <mxCell id="FcxImMg5sT2_sHitMUej-86" value="" style="group" vertex="1" connectable="0" parent="1">
          <mxGeometry x="30" y="410" width="360" height="400" as="geometry" />
        </mxCell>
        <mxCell id="FcxImMg5sT2_sHitMUej-55" value="" style="edgeStyle=orthogonalEdgeStyle;rounded=0;orthogonalLoop=1;jettySize=auto;html=1;endArrow=none;startFill=0;" edge="1" parent="FcxImMg5sT2_sHitMUej-86" source="FcxImMg5sT2_sHitMUej-64" target="FcxImMg5sT2_sHitMUej-65">
          <mxGeometry relative="1" as="geometry" />
        </mxCell>
        <mxCell id="FcxImMg5sT2_sHitMUej-56" style="rounded=0;orthogonalLoop=1;jettySize=auto;html=1;exitX=0.25;exitY=0;exitDx=0;exitDy=0;entryX=1;entryY=0.5;entryDx=0;entryDy=0;endArrow=none;startFill=0;" edge="1" parent="FcxImMg5sT2_sHitMUej-86" source="FcxImMg5sT2_sHitMUej-64" target="FcxImMg5sT2_sHitMUej-67">
          <mxGeometry relative="1" as="geometry" />
        </mxCell>
        <mxCell id="FcxImMg5sT2_sHitMUej-57" style="rounded=0;orthogonalLoop=1;jettySize=auto;html=1;exitX=0.75;exitY=0;exitDx=0;exitDy=0;entryX=0;entryY=0.75;entryDx=0;entryDy=0;endArrow=none;startFill=0;" edge="1" parent="FcxImMg5sT2_sHitMUej-86" source="FcxImMg5sT2_sHitMUej-64" target="FcxImMg5sT2_sHitMUej-66">
          <mxGeometry relative="1" as="geometry" />
        </mxCell>
        <mxCell id="FcxImMg5sT2_sHitMUej-58" style="rounded=0;orthogonalLoop=1;jettySize=auto;html=1;exitX=1;exitY=0;exitDx=0;exitDy=0;entryX=0;entryY=0.5;entryDx=0;entryDy=0;endArrow=none;startFill=0;" edge="1" parent="FcxImMg5sT2_sHitMUej-86" source="FcxImMg5sT2_sHitMUej-64" target="FcxImMg5sT2_sHitMUej-70">
          <mxGeometry relative="1" as="geometry" />
        </mxCell>
        <mxCell id="FcxImMg5sT2_sHitMUej-59" style="rounded=0;orthogonalLoop=1;jettySize=auto;html=1;exitX=0;exitY=0;exitDx=0;exitDy=0;entryX=1;entryY=0.5;entryDx=0;entryDy=0;endArrow=none;startFill=0;" edge="1" parent="FcxImMg5sT2_sHitMUej-86" source="FcxImMg5sT2_sHitMUej-64" target="FcxImMg5sT2_sHitMUej-69">
          <mxGeometry relative="1" as="geometry" />
        </mxCell>
        <mxCell id="FcxImMg5sT2_sHitMUej-60" style="rounded=0;orthogonalLoop=1;jettySize=auto;html=1;exitX=0;exitY=0.5;exitDx=0;exitDy=0;entryX=1;entryY=0.5;entryDx=0;entryDy=0;endArrow=none;startFill=0;" edge="1" parent="FcxImMg5sT2_sHitMUej-86" source="FcxImMg5sT2_sHitMUej-64" target="FcxImMg5sT2_sHitMUej-68">
          <mxGeometry relative="1" as="geometry" />
        </mxCell>
        <mxCell id="FcxImMg5sT2_sHitMUej-61" style="rounded=0;orthogonalLoop=1;jettySize=auto;html=1;exitX=1;exitY=0.5;exitDx=0;exitDy=0;entryX=0;entryY=0.5;entryDx=0;entryDy=0;endArrow=none;startFill=0;" edge="1" parent="FcxImMg5sT2_sHitMUej-86" source="FcxImMg5sT2_sHitMUej-64" target="FcxImMg5sT2_sHitMUej-71">
          <mxGeometry relative="1" as="geometry" />
        </mxCell>
        <mxCell id="FcxImMg5sT2_sHitMUej-62" style="rounded=0;orthogonalLoop=1;jettySize=auto;html=1;exitX=0;exitY=1;exitDx=0;exitDy=0;endArrow=none;startFill=0;entryX=1;entryY=0.25;entryDx=0;entryDy=0;" edge="1" parent="FcxImMg5sT2_sHitMUej-86" source="FcxImMg5sT2_sHitMUej-64" target="FcxImMg5sT2_sHitMUej-72">
          <mxGeometry relative="1" as="geometry">
            <mxPoint x="100" y="190" as="targetPoint" />
          </mxGeometry>
        </mxCell>
        <mxCell id="FcxImMg5sT2_sHitMUej-63" style="rounded=0;orthogonalLoop=1;jettySize=auto;html=1;exitX=1;exitY=1;exitDx=0;exitDy=0;entryX=0;entryY=0.25;entryDx=0;entryDy=0;endArrow=none;startFill=0;" edge="1" parent="FcxImMg5sT2_sHitMUej-86" source="FcxImMg5sT2_sHitMUej-64" target="FcxImMg5sT2_sHitMUej-73">
          <mxGeometry relative="1" as="geometry" />
        </mxCell>
        <mxCell id="FcxImMg5sT2_sHitMUej-64" value="&lt;font style=&quot;font-size: 20px;&quot;&gt;视频&lt;/font&gt;&lt;span style=&quot;font-size: 20px;&quot;&gt;表&lt;/span&gt;" style="rounded=0;whiteSpace=wrap;html=1;" vertex="1" parent="FcxImMg5sT2_sHitMUej-86">
          <mxGeometry x="120" y="90" width="120" height="60" as="geometry" />
        </mxCell>
        <mxCell id="FcxImMg5sT2_sHitMUej-65" value="&lt;font style=&quot;font-size: 20px;&quot;&gt;&lt;u&gt;视频ID&lt;/u&gt;&lt;/font&gt;" style="rounded=1;whiteSpace=wrap;html=1;arcSize=50;" vertex="1" parent="FcxImMg5sT2_sHitMUej-86">
          <mxGeometry x="130" width="100" height="40" as="geometry" />
        </mxCell>
        <mxCell id="FcxImMg5sT2_sHitMUej-66" value="&lt;font style=&quot;font-size: 20px;&quot;&gt;点赞数&lt;/font&gt;" style="rounded=1;whiteSpace=wrap;html=1;arcSize=50;" vertex="1" parent="FcxImMg5sT2_sHitMUej-86">
          <mxGeometry x="260" width="100" height="40" as="geometry" />
        </mxCell>
        <mxCell id="FcxImMg5sT2_sHitMUej-67" value="&lt;font style=&quot;font-size: 20px;&quot;&gt;教师ID&lt;/font&gt;" style="rounded=1;whiteSpace=wrap;html=1;arcSize=50;" vertex="1" parent="FcxImMg5sT2_sHitMUej-86">
          <mxGeometry width="100" height="40" as="geometry" />
        </mxCell>
        <mxCell id="FcxImMg5sT2_sHitMUej-68" value="&lt;span style=&quot;font-size: 20px;&quot;&gt;视频名称&lt;/span&gt;" style="rounded=1;whiteSpace=wrap;html=1;arcSize=50;" vertex="1" parent="FcxImMg5sT2_sHitMUej-86">
          <mxGeometry y="120" width="100" height="40" as="geometry" />
        </mxCell>
        <mxCell id="FcxImMg5sT2_sHitMUej-69" value="&lt;font style=&quot;font-size: 20px;&quot;&gt;视频地址&lt;/font&gt;" style="rounded=1;whiteSpace=wrap;html=1;arcSize=50;" vertex="1" parent="FcxImMg5sT2_sHitMUej-86">
          <mxGeometry y="60" width="100" height="40" as="geometry" />
        </mxCell>
        <mxCell id="FcxImMg5sT2_sHitMUej-70" value="&lt;span style=&quot;font-size: 20px;&quot;&gt;收藏数&lt;/span&gt;" style="rounded=1;whiteSpace=wrap;html=1;arcSize=50;" vertex="1" parent="FcxImMg5sT2_sHitMUej-86">
          <mxGeometry x="260" y="60" width="100" height="40" as="geometry" />
        </mxCell>
        <mxCell id="FcxImMg5sT2_sHitMUej-71" value="&lt;span style=&quot;font-size: 20px;&quot;&gt;视频状态&lt;/span&gt;" style="rounded=1;whiteSpace=wrap;html=1;arcSize=50;" vertex="1" parent="FcxImMg5sT2_sHitMUej-86">
          <mxGeometry x="260" y="120" width="100" height="40" as="geometry" />
        </mxCell>
        <mxCell id="FcxImMg5sT2_sHitMUej-72" value="&lt;font style=&quot;font-size: 20px;&quot;&gt;视频时长&lt;/font&gt;" style="rounded=1;whiteSpace=wrap;html=1;arcSize=50;" vertex="1" parent="FcxImMg5sT2_sHitMUej-86">
          <mxGeometry y="180" width="100" height="40" as="geometry" />
        </mxCell>
        <mxCell id="FcxImMg5sT2_sHitMUej-73" value="&lt;font style=&quot;font-size: 20px;&quot;&gt;开始时间&lt;/font&gt;" style="rounded=1;whiteSpace=wrap;html=1;arcSize=50;" vertex="1" parent="FcxImMg5sT2_sHitMUej-86">
          <mxGeometry x="260" y="180" width="100" height="40" as="geometry" />
        </mxCell>
        <mxCell id="FcxImMg5sT2_sHitMUej-74" style="rounded=0;orthogonalLoop=1;jettySize=auto;html=1;exitX=0.75;exitY=1;exitDx=0;exitDy=0;entryX=0;entryY=0.25;entryDx=0;entryDy=0;endArrow=none;startFill=0;" edge="1" parent="FcxImMg5sT2_sHitMUej-86" target="FcxImMg5sT2_sHitMUej-75" source="FcxImMg5sT2_sHitMUej-64">
          <mxGeometry relative="1" as="geometry">
            <mxPoint x="240" y="210" as="sourcePoint" />
          </mxGeometry>
        </mxCell>
        <mxCell id="FcxImMg5sT2_sHitMUej-75" value="&lt;span style=&quot;font-size: 20px;&quot;&gt;结束时间&lt;/span&gt;" style="rounded=1;whiteSpace=wrap;html=1;arcSize=50;" vertex="1" parent="FcxImMg5sT2_sHitMUej-86">
          <mxGeometry x="260" y="240" width="100" height="40" as="geometry" />
        </mxCell>
        <mxCell id="FcxImMg5sT2_sHitMUej-76" style="rounded=0;orthogonalLoop=1;jettySize=auto;html=1;exitX=0.75;exitY=1;exitDx=0;exitDy=0;entryX=0;entryY=0.25;entryDx=0;entryDy=0;endArrow=none;startFill=0;" edge="1" parent="FcxImMg5sT2_sHitMUej-86" target="FcxImMg5sT2_sHitMUej-77" source="FcxImMg5sT2_sHitMUej-64">
          <mxGeometry relative="1" as="geometry">
            <mxPoint x="240" y="270" as="sourcePoint" />
          </mxGeometry>
        </mxCell>
        <mxCell id="FcxImMg5sT2_sHitMUej-77" value="&lt;font style=&quot;font-size: 20px;&quot;&gt;上课班级&lt;/font&gt;" style="rounded=1;whiteSpace=wrap;html=1;arcSize=50;" vertex="1" parent="FcxImMg5sT2_sHitMUej-86">
          <mxGeometry x="260" y="300" width="100" height="40" as="geometry" />
        </mxCell>
        <mxCell id="FcxImMg5sT2_sHitMUej-78" style="rounded=0;orthogonalLoop=1;jettySize=auto;html=1;exitX=0.25;exitY=1;exitDx=0;exitDy=0;entryX=1;entryY=0.25;entryDx=0;entryDy=0;endArrow=none;startFill=0;" edge="1" parent="FcxImMg5sT2_sHitMUej-86" target="FcxImMg5sT2_sHitMUej-79" source="FcxImMg5sT2_sHitMUej-64">
          <mxGeometry relative="1" as="geometry">
            <mxPoint x="-20" y="210" as="sourcePoint" />
          </mxGeometry>
        </mxCell>
        <mxCell id="FcxImMg5sT2_sHitMUej-79" value="&lt;font style=&quot;font-size: 20px;&quot;&gt;视频类型&lt;/font&gt;" style="rounded=1;whiteSpace=wrap;html=1;arcSize=50;" vertex="1" parent="FcxImMg5sT2_sHitMUej-86">
          <mxGeometry y="240" width="100" height="40" as="geometry" />
        </mxCell>
        <mxCell id="FcxImMg5sT2_sHitMUej-80" style="rounded=0;orthogonalLoop=1;jettySize=auto;html=1;exitX=0.25;exitY=1;exitDx=0;exitDy=0;entryX=1;entryY=0.25;entryDx=0;entryDy=0;endArrow=none;startFill=0;" edge="1" parent="FcxImMg5sT2_sHitMUej-86" target="FcxImMg5sT2_sHitMUej-81" source="FcxImMg5sT2_sHitMUej-64">
          <mxGeometry relative="1" as="geometry">
            <mxPoint x="150" y="210" as="sourcePoint" />
          </mxGeometry>
        </mxCell>
        <mxCell id="FcxImMg5sT2_sHitMUej-81" value="&lt;font style=&quot;font-size: 20px;&quot;&gt;视频简介&lt;/font&gt;" style="rounded=1;whiteSpace=wrap;html=1;arcSize=50;" vertex="1" parent="FcxImMg5sT2_sHitMUej-86">
          <mxGeometry y="300" width="100" height="40" as="geometry" />
        </mxCell>
        <mxCell id="FcxImMg5sT2_sHitMUej-82" style="rounded=0;orthogonalLoop=1;jettySize=auto;html=1;entryX=1;entryY=0.25;entryDx=0;entryDy=0;endArrow=none;startFill=0;exitX=0.5;exitY=1;exitDx=0;exitDy=0;" edge="1" parent="FcxImMg5sT2_sHitMUej-86" target="FcxImMg5sT2_sHitMUej-83" source="FcxImMg5sT2_sHitMUej-64">
          <mxGeometry relative="1" as="geometry">
            <mxPoint x="150" y="270" as="sourcePoint" />
          </mxGeometry>
        </mxCell>
        <mxCell id="FcxImMg5sT2_sHitMUej-83" value="&lt;font style=&quot;font-size: 20px;&quot;&gt;视频封面&lt;/font&gt;" style="rounded=1;whiteSpace=wrap;html=1;arcSize=50;" vertex="1" parent="FcxImMg5sT2_sHitMUej-86">
          <mxGeometry y="360" width="100" height="40" as="geometry" />
        </mxCell>
        <mxCell id="FcxImMg5sT2_sHitMUej-84" style="rounded=0;orthogonalLoop=1;jettySize=auto;html=1;exitX=0.5;exitY=1;exitDx=0;exitDy=0;entryX=0;entryY=0.25;entryDx=0;entryDy=0;endArrow=none;startFill=0;" edge="1" parent="FcxImMg5sT2_sHitMUej-86" target="FcxImMg5sT2_sHitMUej-85" source="FcxImMg5sT2_sHitMUej-64">
          <mxGeometry relative="1" as="geometry">
            <mxPoint x="210" y="210" as="sourcePoint" />
          </mxGeometry>
        </mxCell>
        <mxCell id="FcxImMg5sT2_sHitMUej-85" value="&lt;span style=&quot;font-size: 20px;&quot;&gt;播放数&lt;/span&gt;" style="rounded=1;whiteSpace=wrap;html=1;arcSize=50;" vertex="1" parent="FcxImMg5sT2_sHitMUej-86">
          <mxGeometry x="260" y="360" width="100" height="40" as="geometry" />
        </mxCell>
        <mxCell id="FcxImMg5sT2_sHitMUej-109" value="" style="group" vertex="1" connectable="0" parent="1">
          <mxGeometry x="450" y="420" width="360" height="250" as="geometry" />
        </mxCell>
        <mxCell id="FcxImMg5sT2_sHitMUej-88" value="" style="edgeStyle=orthogonalEdgeStyle;rounded=0;orthogonalLoop=1;jettySize=auto;html=1;endArrow=none;startFill=0;" edge="1" parent="FcxImMg5sT2_sHitMUej-109" source="FcxImMg5sT2_sHitMUej-97" target="FcxImMg5sT2_sHitMUej-98">
          <mxGeometry relative="1" as="geometry" />
        </mxCell>
        <mxCell id="FcxImMg5sT2_sHitMUej-89" style="rounded=0;orthogonalLoop=1;jettySize=auto;html=1;exitX=0;exitY=0.5;exitDx=0;exitDy=0;entryX=1;entryY=0.5;entryDx=0;entryDy=0;endArrow=none;startFill=0;" edge="1" parent="FcxImMg5sT2_sHitMUej-109" source="FcxImMg5sT2_sHitMUej-97" target="FcxImMg5sT2_sHitMUej-100">
          <mxGeometry relative="1" as="geometry" />
        </mxCell>
        <mxCell id="FcxImMg5sT2_sHitMUej-90" style="rounded=0;orthogonalLoop=1;jettySize=auto;html=1;exitX=1;exitY=0.5;exitDx=0;exitDy=0;entryX=0;entryY=0.75;entryDx=0;entryDy=0;endArrow=none;startFill=0;" edge="1" parent="FcxImMg5sT2_sHitMUej-109" source="FcxImMg5sT2_sHitMUej-97" target="FcxImMg5sT2_sHitMUej-99">
          <mxGeometry relative="1" as="geometry" />
        </mxCell>
        <mxCell id="FcxImMg5sT2_sHitMUej-91" style="rounded=0;orthogonalLoop=1;jettySize=auto;html=1;exitX=1;exitY=0.5;exitDx=0;exitDy=0;entryX=0;entryY=0.5;entryDx=0;entryDy=0;endArrow=none;startFill=0;" edge="1" parent="FcxImMg5sT2_sHitMUej-109" source="FcxImMg5sT2_sHitMUej-97" target="FcxImMg5sT2_sHitMUej-103">
          <mxGeometry relative="1" as="geometry" />
        </mxCell>
        <mxCell id="FcxImMg5sT2_sHitMUej-92" style="rounded=0;orthogonalLoop=1;jettySize=auto;html=1;exitX=0;exitY=0.5;exitDx=0;exitDy=0;entryX=1;entryY=0.5;entryDx=0;entryDy=0;endArrow=none;startFill=0;" edge="1" parent="FcxImMg5sT2_sHitMUej-109" source="FcxImMg5sT2_sHitMUej-97" target="FcxImMg5sT2_sHitMUej-102">
          <mxGeometry relative="1" as="geometry">
            <mxPoint x="120" y="130" as="sourcePoint" />
          </mxGeometry>
        </mxCell>
        <mxCell id="FcxImMg5sT2_sHitMUej-93" style="rounded=0;orthogonalLoop=1;jettySize=auto;html=1;exitX=0.5;exitY=1;exitDx=0;exitDy=0;entryX=0.5;entryY=0;entryDx=0;entryDy=0;endArrow=none;startFill=0;" edge="1" parent="FcxImMg5sT2_sHitMUej-109" source="FcxImMg5sT2_sHitMUej-97" target="FcxImMg5sT2_sHitMUej-101">
          <mxGeometry relative="1" as="geometry">
            <mxPoint x="120" y="160" as="sourcePoint" />
          </mxGeometry>
        </mxCell>
        <mxCell id="FcxImMg5sT2_sHitMUej-97" value="&lt;font style=&quot;font-size: 20px;&quot;&gt;评论&lt;/font&gt;" style="rounded=0;whiteSpace=wrap;html=1;" vertex="1" parent="FcxImMg5sT2_sHitMUej-109">
          <mxGeometry x="120" y="90" width="120" height="60" as="geometry" />
        </mxCell>
        <mxCell id="FcxImMg5sT2_sHitMUej-98" value="&lt;font style=&quot;font-size: 20px;&quot;&gt;&lt;u&gt;评论ID&lt;/u&gt;&lt;/font&gt;" style="rounded=1;whiteSpace=wrap;html=1;arcSize=50;" vertex="1" parent="FcxImMg5sT2_sHitMUej-109">
          <mxGeometry x="130" width="100" height="40" as="geometry" />
        </mxCell>
        <mxCell id="FcxImMg5sT2_sHitMUej-99" value="&lt;font style=&quot;font-size: 20px;&quot;&gt;评论父ID&lt;/font&gt;" style="rounded=1;whiteSpace=wrap;html=1;arcSize=50;" vertex="1" parent="FcxImMg5sT2_sHitMUej-109">
          <mxGeometry x="260" y="70" width="100" height="40" as="geometry" />
        </mxCell>
        <mxCell id="FcxImMg5sT2_sHitMUej-100" value="&lt;font style=&quot;font-size: 20px;&quot;&gt;视频ID&lt;/font&gt;" style="rounded=1;whiteSpace=wrap;html=1;arcSize=50;" vertex="1" parent="FcxImMg5sT2_sHitMUej-109">
          <mxGeometry y="80" width="100" height="40" as="geometry" />
        </mxCell>
        <mxCell id="FcxImMg5sT2_sHitMUej-101" value="&lt;span style=&quot;font-size: 20px;&quot;&gt;评论用户类别&lt;/span&gt;" style="rounded=1;whiteSpace=wrap;html=1;arcSize=50;" vertex="1" parent="FcxImMg5sT2_sHitMUej-109">
          <mxGeometry x="130" y="200" width="100" height="50" as="geometry" />
        </mxCell>
        <mxCell id="FcxImMg5sT2_sHitMUej-102" value="&lt;font style=&quot;font-size: 20px;&quot;&gt;评论用户&lt;/font&gt;" style="rounded=1;whiteSpace=wrap;html=1;arcSize=50;" vertex="1" parent="FcxImMg5sT2_sHitMUej-109">
          <mxGeometry y="140" width="100" height="40" as="geometry" />
        </mxCell>
        <mxCell id="FcxImMg5sT2_sHitMUej-103" value="&lt;span style=&quot;font-size: 20px;&quot;&gt;评论内容&lt;/span&gt;" style="rounded=1;whiteSpace=wrap;html=1;arcSize=50;" vertex="1" parent="FcxImMg5sT2_sHitMUej-109">
          <mxGeometry x="260" y="130" width="100" height="40" as="geometry" />
        </mxCell>
        <mxCell id="FcxImMg5sT2_sHitMUej-126" value="" style="group" vertex="1" connectable="0" parent="1">
          <mxGeometry x="30" y="900" width="360" height="110" as="geometry" />
        </mxCell>
        <mxCell id="FcxImMg5sT2_sHitMUej-111" value="" style="rounded=0;orthogonalLoop=1;jettySize=auto;html=1;endArrow=none;startFill=0;exitX=1;exitY=0.5;exitDx=0;exitDy=0;entryX=0;entryY=0.5;entryDx=0;entryDy=0;" edge="1" parent="FcxImMg5sT2_sHitMUej-126" source="FcxImMg5sT2_sHitMUej-117" target="FcxImMg5sT2_sHitMUej-118">
          <mxGeometry relative="1" as="geometry" />
        </mxCell>
        <mxCell id="FcxImMg5sT2_sHitMUej-112" style="rounded=0;orthogonalLoop=1;jettySize=auto;html=1;exitX=0;exitY=0.5;exitDx=0;exitDy=0;entryX=1;entryY=0.5;entryDx=0;entryDy=0;endArrow=none;startFill=0;" edge="1" parent="FcxImMg5sT2_sHitMUej-126" source="FcxImMg5sT2_sHitMUej-117" target="FcxImMg5sT2_sHitMUej-120">
          <mxGeometry relative="1" as="geometry" />
        </mxCell>
        <mxCell id="FcxImMg5sT2_sHitMUej-115" style="rounded=0;orthogonalLoop=1;jettySize=auto;html=1;exitX=0;exitY=0.5;exitDx=0;exitDy=0;entryX=1;entryY=0.5;entryDx=0;entryDy=0;endArrow=none;startFill=0;" edge="1" parent="FcxImMg5sT2_sHitMUej-126" source="FcxImMg5sT2_sHitMUej-117" target="FcxImMg5sT2_sHitMUej-122">
          <mxGeometry relative="1" as="geometry">
            <mxPoint x="120" y="60" as="sourcePoint" />
          </mxGeometry>
        </mxCell>
        <mxCell id="FcxImMg5sT2_sHitMUej-117" value="&lt;font style=&quot;font-size: 20px;&quot;&gt;点赞表&lt;/font&gt;" style="rounded=0;whiteSpace=wrap;html=1;" vertex="1" parent="FcxImMg5sT2_sHitMUej-126">
          <mxGeometry x="120" y="20" width="120" height="60" as="geometry" />
        </mxCell>
        <mxCell id="FcxImMg5sT2_sHitMUej-118" value="&lt;font style=&quot;font-size: 20px;&quot;&gt;&lt;u&gt;点赞ID&lt;/u&gt;&lt;/font&gt;" style="rounded=1;whiteSpace=wrap;html=1;arcSize=50;" vertex="1" parent="FcxImMg5sT2_sHitMUej-126">
          <mxGeometry x="260" width="100" height="40" as="geometry" />
        </mxCell>
        <mxCell id="FcxImMg5sT2_sHitMUej-120" value="&lt;font style=&quot;font-size: 20px;&quot;&gt;视频ID&lt;/font&gt;" style="rounded=1;whiteSpace=wrap;html=1;arcSize=50;" vertex="1" parent="FcxImMg5sT2_sHitMUej-126">
          <mxGeometry y="10" width="100" height="40" as="geometry" />
        </mxCell>
        <mxCell id="FcxImMg5sT2_sHitMUej-122" value="&lt;font style=&quot;font-size: 20px;&quot;&gt;评论用户&lt;/font&gt;" style="rounded=1;whiteSpace=wrap;html=1;arcSize=50;" vertex="1" parent="FcxImMg5sT2_sHitMUej-126">
          <mxGeometry y="70" width="100" height="40" as="geometry" />
        </mxCell>
        <mxCell id="FcxImMg5sT2_sHitMUej-124" style="rounded=0;orthogonalLoop=1;jettySize=auto;html=1;exitX=1;exitY=0.5;exitDx=0;exitDy=0;entryX=0;entryY=0.25;entryDx=0;entryDy=0;endArrow=none;startFill=0;" edge="1" parent="FcxImMg5sT2_sHitMUej-126" target="FcxImMg5sT2_sHitMUej-125" source="FcxImMg5sT2_sHitMUej-117">
          <mxGeometry relative="1" as="geometry">
            <mxPoint x="180" y="80" as="sourcePoint" />
          </mxGeometry>
        </mxCell>
        <mxCell id="FcxImMg5sT2_sHitMUej-125" value="&lt;span style=&quot;font-size: 20px;&quot;&gt;评论用户类别&lt;/span&gt;" style="rounded=1;whiteSpace=wrap;html=1;arcSize=50;" vertex="1" parent="FcxImMg5sT2_sHitMUej-126">
          <mxGeometry x="260" y="60" width="100" height="50" as="geometry" />
        </mxCell>
        <mxCell id="FcxImMg5sT2_sHitMUej-127" value="" style="group" vertex="1" connectable="0" parent="1">
          <mxGeometry x="450" y="720" width="360" height="110" as="geometry" />
        </mxCell>
        <mxCell id="FcxImMg5sT2_sHitMUej-128" value="" style="rounded=0;orthogonalLoop=1;jettySize=auto;html=1;endArrow=none;startFill=0;exitX=1;exitY=0.5;exitDx=0;exitDy=0;entryX=0;entryY=0.5;entryDx=0;entryDy=0;" edge="1" parent="FcxImMg5sT2_sHitMUej-127" source="FcxImMg5sT2_sHitMUej-131" target="FcxImMg5sT2_sHitMUej-132">
          <mxGeometry relative="1" as="geometry" />
        </mxCell>
        <mxCell id="FcxImMg5sT2_sHitMUej-129" style="rounded=0;orthogonalLoop=1;jettySize=auto;html=1;exitX=0;exitY=0.5;exitDx=0;exitDy=0;entryX=1;entryY=0.5;entryDx=0;entryDy=0;endArrow=none;startFill=0;" edge="1" parent="FcxImMg5sT2_sHitMUej-127" source="FcxImMg5sT2_sHitMUej-131" target="FcxImMg5sT2_sHitMUej-133">
          <mxGeometry relative="1" as="geometry" />
        </mxCell>
        <mxCell id="FcxImMg5sT2_sHitMUej-130" style="rounded=0;orthogonalLoop=1;jettySize=auto;html=1;exitX=0;exitY=0.5;exitDx=0;exitDy=0;entryX=1;entryY=0.5;entryDx=0;entryDy=0;endArrow=none;startFill=0;" edge="1" parent="FcxImMg5sT2_sHitMUej-127" source="FcxImMg5sT2_sHitMUej-131" target="FcxImMg5sT2_sHitMUej-134">
          <mxGeometry relative="1" as="geometry">
            <mxPoint x="120" y="60" as="sourcePoint" />
          </mxGeometry>
        </mxCell>
        <mxCell id="FcxImMg5sT2_sHitMUej-131" value="&lt;font style=&quot;font-size: 20px;&quot;&gt;收藏表&lt;/font&gt;" style="rounded=0;whiteSpace=wrap;html=1;" vertex="1" parent="FcxImMg5sT2_sHitMUej-127">
          <mxGeometry x="120" y="20" width="120" height="60" as="geometry" />
        </mxCell>
        <mxCell id="FcxImMg5sT2_sHitMUej-132" value="&lt;font style=&quot;font-size: 20px;&quot;&gt;&lt;u&gt;收藏ID&lt;/u&gt;&lt;/font&gt;" style="rounded=1;whiteSpace=wrap;html=1;arcSize=50;" vertex="1" parent="FcxImMg5sT2_sHitMUej-127">
          <mxGeometry x="260" width="100" height="40" as="geometry" />
        </mxCell>
        <mxCell id="FcxImMg5sT2_sHitMUej-133" value="&lt;font style=&quot;font-size: 20px;&quot;&gt;视频ID&lt;/font&gt;" style="rounded=1;whiteSpace=wrap;html=1;arcSize=50;" vertex="1" parent="FcxImMg5sT2_sHitMUej-127">
          <mxGeometry y="10" width="100" height="40" as="geometry" />
        </mxCell>
        <mxCell id="FcxImMg5sT2_sHitMUej-134" value="&lt;font style=&quot;font-size: 20px;&quot;&gt;评论用户&lt;/font&gt;" style="rounded=1;whiteSpace=wrap;html=1;arcSize=50;" vertex="1" parent="FcxImMg5sT2_sHitMUej-127">
          <mxGeometry y="70" width="100" height="40" as="geometry" />
        </mxCell>
        <mxCell id="FcxImMg5sT2_sHitMUej-135" style="rounded=0;orthogonalLoop=1;jettySize=auto;html=1;exitX=1;exitY=0.5;exitDx=0;exitDy=0;entryX=0;entryY=0.25;entryDx=0;entryDy=0;endArrow=none;startFill=0;" edge="1" parent="FcxImMg5sT2_sHitMUej-127" source="FcxImMg5sT2_sHitMUej-131" target="FcxImMg5sT2_sHitMUej-136">
          <mxGeometry relative="1" as="geometry">
            <mxPoint x="180" y="80" as="sourcePoint" />
          </mxGeometry>
        </mxCell>
        <mxCell id="FcxImMg5sT2_sHitMUej-136" value="&lt;span style=&quot;font-size: 20px;&quot;&gt;评论用户类别&lt;/span&gt;" style="rounded=1;whiteSpace=wrap;html=1;arcSize=50;" vertex="1" parent="FcxImMg5sT2_sHitMUej-127">
          <mxGeometry x="260" y="60" width="100" height="50" as="geometry" />
        </mxCell>
        <mxCell id="FcxImMg5sT2_sHitMUej-167" value="" style="group" vertex="1" connectable="0" parent="1">
          <mxGeometry x="850" y="150" width="360" height="240" as="geometry" />
        </mxCell>
        <mxCell id="FcxImMg5sT2_sHitMUej-148" value="" style="edgeStyle=orthogonalEdgeStyle;rounded=0;orthogonalLoop=1;jettySize=auto;html=1;endArrow=none;startFill=0;" edge="1" parent="FcxImMg5sT2_sHitMUej-167" source="FcxImMg5sT2_sHitMUej-157" target="FcxImMg5sT2_sHitMUej-158">
          <mxGeometry relative="1" as="geometry" />
        </mxCell>
        <mxCell id="FcxImMg5sT2_sHitMUej-149" style="rounded=0;orthogonalLoop=1;jettySize=auto;html=1;exitX=0;exitY=0.5;exitDx=0;exitDy=0;entryX=1;entryY=0.5;entryDx=0;entryDy=0;endArrow=none;startFill=0;" edge="1" parent="FcxImMg5sT2_sHitMUej-167" source="FcxImMg5sT2_sHitMUej-157" target="FcxImMg5sT2_sHitMUej-160">
          <mxGeometry relative="1" as="geometry" />
        </mxCell>
        <mxCell id="FcxImMg5sT2_sHitMUej-150" style="rounded=0;orthogonalLoop=1;jettySize=auto;html=1;exitX=1;exitY=0.5;exitDx=0;exitDy=0;entryX=0;entryY=0.75;entryDx=0;entryDy=0;endArrow=none;startFill=0;" edge="1" parent="FcxImMg5sT2_sHitMUej-167" source="FcxImMg5sT2_sHitMUej-157" target="FcxImMg5sT2_sHitMUej-159">
          <mxGeometry relative="1" as="geometry" />
        </mxCell>
        <mxCell id="FcxImMg5sT2_sHitMUej-151" style="rounded=0;orthogonalLoop=1;jettySize=auto;html=1;exitX=1;exitY=0.5;exitDx=0;exitDy=0;entryX=0;entryY=0.5;entryDx=0;entryDy=0;endArrow=none;startFill=0;" edge="1" parent="FcxImMg5sT2_sHitMUej-167" source="FcxImMg5sT2_sHitMUej-157" target="FcxImMg5sT2_sHitMUej-163">
          <mxGeometry relative="1" as="geometry" />
        </mxCell>
        <mxCell id="FcxImMg5sT2_sHitMUej-152" style="rounded=0;orthogonalLoop=1;jettySize=auto;html=1;exitX=0;exitY=0.5;exitDx=0;exitDy=0;entryX=1;entryY=0.5;entryDx=0;entryDy=0;endArrow=none;startFill=0;" edge="1" parent="FcxImMg5sT2_sHitMUej-167" source="FcxImMg5sT2_sHitMUej-157" target="FcxImMg5sT2_sHitMUej-162">
          <mxGeometry relative="1" as="geometry" />
        </mxCell>
        <mxCell id="FcxImMg5sT2_sHitMUej-153" style="rounded=0;orthogonalLoop=1;jettySize=auto;html=1;exitX=0;exitY=0.5;exitDx=0;exitDy=0;entryX=1;entryY=0.5;entryDx=0;entryDy=0;endArrow=none;startFill=0;" edge="1" parent="FcxImMg5sT2_sHitMUej-167" source="FcxImMg5sT2_sHitMUej-157" target="FcxImMg5sT2_sHitMUej-161">
          <mxGeometry relative="1" as="geometry" />
        </mxCell>
        <mxCell id="FcxImMg5sT2_sHitMUej-154" style="rounded=0;orthogonalLoop=1;jettySize=auto;html=1;exitX=1;exitY=0.5;exitDx=0;exitDy=0;entryX=0;entryY=0.5;entryDx=0;entryDy=0;endArrow=none;startFill=0;" edge="1" parent="FcxImMg5sT2_sHitMUej-167" source="FcxImMg5sT2_sHitMUej-157" target="FcxImMg5sT2_sHitMUej-164">
          <mxGeometry relative="1" as="geometry" />
        </mxCell>
        <mxCell id="FcxImMg5sT2_sHitMUej-155" style="rounded=0;orthogonalLoop=1;jettySize=auto;html=1;exitX=0.5;exitY=1;exitDx=0;exitDy=0;entryX=0.5;entryY=0;entryDx=0;entryDy=0;endArrow=none;startFill=0;" edge="1" parent="FcxImMg5sT2_sHitMUej-167" source="FcxImMg5sT2_sHitMUej-157" target="FcxImMg5sT2_sHitMUej-165">
          <mxGeometry relative="1" as="geometry" />
        </mxCell>
        <mxCell id="FcxImMg5sT2_sHitMUej-157" value="&lt;span style=&quot;font-size: 20px;&quot;&gt;学习进度表&lt;/span&gt;" style="rounded=0;whiteSpace=wrap;html=1;" vertex="1" parent="FcxImMg5sT2_sHitMUej-167">
          <mxGeometry x="120" y="90" width="120" height="60" as="geometry" />
        </mxCell>
        <mxCell id="FcxImMg5sT2_sHitMUej-158" value="&lt;font style=&quot;font-size: 20px;&quot;&gt;&lt;u&gt;主键ID&lt;/u&gt;&lt;/font&gt;" style="rounded=1;whiteSpace=wrap;html=1;arcSize=50;" vertex="1" parent="FcxImMg5sT2_sHitMUej-167">
          <mxGeometry x="130" width="100" height="40" as="geometry" />
        </mxCell>
        <mxCell id="FcxImMg5sT2_sHitMUej-159" value="&lt;font style=&quot;font-size: 20px;&quot;&gt;视频ID&lt;/font&gt;" style="rounded=1;whiteSpace=wrap;html=1;arcSize=50;" vertex="1" parent="FcxImMg5sT2_sHitMUej-167">
          <mxGeometry x="260" y="40" width="100" height="40" as="geometry" />
        </mxCell>
        <mxCell id="FcxImMg5sT2_sHitMUej-160" value="&lt;font style=&quot;font-size: 20px;&quot;&gt;学生ID&lt;/font&gt;" style="rounded=1;whiteSpace=wrap;html=1;arcSize=50;" vertex="1" parent="FcxImMg5sT2_sHitMUej-167">
          <mxGeometry y="40" width="100" height="40" as="geometry" />
        </mxCell>
        <mxCell id="FcxImMg5sT2_sHitMUej-161" value="&lt;span style=&quot;font-size: 20px;&quot;&gt;观看进度&lt;/span&gt;" style="rounded=1;whiteSpace=wrap;html=1;arcSize=50;" vertex="1" parent="FcxImMg5sT2_sHitMUej-167">
          <mxGeometry y="160" width="100" height="40" as="geometry" />
        </mxCell>
        <mxCell id="FcxImMg5sT2_sHitMUej-162" value="&lt;font style=&quot;font-size: 20px;&quot;&gt;观看时长&lt;/font&gt;" style="rounded=1;whiteSpace=wrap;html=1;arcSize=50;" vertex="1" parent="FcxImMg5sT2_sHitMUej-167">
          <mxGeometry y="100" width="100" height="40" as="geometry" />
        </mxCell>
        <mxCell id="FcxImMg5sT2_sHitMUej-163" value="&lt;span style=&quot;font-size: 20px;&quot;&gt;创建时间&lt;/span&gt;" style="rounded=1;whiteSpace=wrap;html=1;arcSize=50;" vertex="1" parent="FcxImMg5sT2_sHitMUej-167">
          <mxGeometry x="260" y="100" width="100" height="40" as="geometry" />
        </mxCell>
        <mxCell id="FcxImMg5sT2_sHitMUej-164" value="&lt;span style=&quot;font-size: 20px;&quot;&gt;更新时间&lt;/span&gt;" style="rounded=1;whiteSpace=wrap;html=1;arcSize=50;" vertex="1" parent="FcxImMg5sT2_sHitMUej-167">
          <mxGeometry x="260" y="160" width="100" height="40" as="geometry" />
        </mxCell>
        <mxCell id="FcxImMg5sT2_sHitMUej-165" value="&lt;font style=&quot;font-size: 20px;&quot;&gt;最后观看时间&lt;/font&gt;" style="rounded=1;whiteSpace=wrap;html=1;arcSize=50;" vertex="1" parent="FcxImMg5sT2_sHitMUej-167">
          <mxGeometry x="130" y="190" width="100" height="50" as="geometry" />
        </mxCell>
        <mxCell id="FcxImMg5sT2_sHitMUej-187" value="" style="group" vertex="1" connectable="0" parent="1">
          <mxGeometry x="850" y="440" width="360" height="240" as="geometry" />
        </mxCell>
        <mxCell id="FcxImMg5sT2_sHitMUej-169" value="" style="edgeStyle=orthogonalEdgeStyle;rounded=0;orthogonalLoop=1;jettySize=auto;html=1;endArrow=none;startFill=0;" edge="1" parent="FcxImMg5sT2_sHitMUej-187" source="FcxImMg5sT2_sHitMUej-177" target="FcxImMg5sT2_sHitMUej-178">
          <mxGeometry relative="1" as="geometry" />
        </mxCell>
        <mxCell id="FcxImMg5sT2_sHitMUej-170" style="rounded=0;orthogonalLoop=1;jettySize=auto;html=1;exitX=0;exitY=0.5;exitDx=0;exitDy=0;entryX=1;entryY=0.5;entryDx=0;entryDy=0;endArrow=none;startFill=0;" edge="1" parent="FcxImMg5sT2_sHitMUej-187" source="FcxImMg5sT2_sHitMUej-177" target="FcxImMg5sT2_sHitMUej-180">
          <mxGeometry relative="1" as="geometry" />
        </mxCell>
        <mxCell id="FcxImMg5sT2_sHitMUej-171" style="rounded=0;orthogonalLoop=1;jettySize=auto;html=1;exitX=1;exitY=0.5;exitDx=0;exitDy=0;entryX=0;entryY=0.75;entryDx=0;entryDy=0;endArrow=none;startFill=0;" edge="1" parent="FcxImMg5sT2_sHitMUej-187" source="FcxImMg5sT2_sHitMUej-177" target="FcxImMg5sT2_sHitMUej-179">
          <mxGeometry relative="1" as="geometry" />
        </mxCell>
        <mxCell id="FcxImMg5sT2_sHitMUej-172" style="rounded=0;orthogonalLoop=1;jettySize=auto;html=1;exitX=1;exitY=0.5;exitDx=0;exitDy=0;entryX=0;entryY=0.5;entryDx=0;entryDy=0;endArrow=none;startFill=0;" edge="1" parent="FcxImMg5sT2_sHitMUej-187" source="FcxImMg5sT2_sHitMUej-177" target="FcxImMg5sT2_sHitMUej-183">
          <mxGeometry relative="1" as="geometry" />
        </mxCell>
        <mxCell id="FcxImMg5sT2_sHitMUej-173" style="rounded=0;orthogonalLoop=1;jettySize=auto;html=1;exitX=0;exitY=0.5;exitDx=0;exitDy=0;entryX=1;entryY=0.5;entryDx=0;entryDy=0;endArrow=none;startFill=0;" edge="1" parent="FcxImMg5sT2_sHitMUej-187" source="FcxImMg5sT2_sHitMUej-177" target="FcxImMg5sT2_sHitMUej-182">
          <mxGeometry relative="1" as="geometry" />
        </mxCell>
        <mxCell id="FcxImMg5sT2_sHitMUej-174" style="rounded=0;orthogonalLoop=1;jettySize=auto;html=1;exitX=0;exitY=0.5;exitDx=0;exitDy=0;entryX=1;entryY=0.5;entryDx=0;entryDy=0;endArrow=none;startFill=0;" edge="1" parent="FcxImMg5sT2_sHitMUej-187" source="FcxImMg5sT2_sHitMUej-177" target="FcxImMg5sT2_sHitMUej-181">
          <mxGeometry relative="1" as="geometry" />
        </mxCell>
        <mxCell id="FcxImMg5sT2_sHitMUej-175" style="rounded=0;orthogonalLoop=1;jettySize=auto;html=1;exitX=1;exitY=0.5;exitDx=0;exitDy=0;entryX=0;entryY=0.5;entryDx=0;entryDy=0;endArrow=none;startFill=0;" edge="1" parent="FcxImMg5sT2_sHitMUej-187" source="FcxImMg5sT2_sHitMUej-177" target="FcxImMg5sT2_sHitMUej-184">
          <mxGeometry relative="1" as="geometry" />
        </mxCell>
        <mxCell id="FcxImMg5sT2_sHitMUej-176" style="rounded=0;orthogonalLoop=1;jettySize=auto;html=1;exitX=0.5;exitY=1;exitDx=0;exitDy=0;entryX=0.5;entryY=0;entryDx=0;entryDy=0;endArrow=none;startFill=0;" edge="1" parent="FcxImMg5sT2_sHitMUej-187" source="FcxImMg5sT2_sHitMUej-177" target="FcxImMg5sT2_sHitMUej-185">
          <mxGeometry relative="1" as="geometry" />
        </mxCell>
        <mxCell id="FcxImMg5sT2_sHitMUej-177" value="&lt;span style=&quot;font-size: 20px;&quot;&gt;学习统计表&lt;/span&gt;" style="rounded=0;whiteSpace=wrap;html=1;" vertex="1" parent="FcxImMg5sT2_sHitMUej-187">
          <mxGeometry x="120" y="90" width="120" height="60" as="geometry" />
        </mxCell>
        <mxCell id="FcxImMg5sT2_sHitMUej-178" value="&lt;font style=&quot;font-size: 20px;&quot;&gt;&lt;u&gt;主键ID&lt;/u&gt;&lt;/font&gt;" style="rounded=1;whiteSpace=wrap;html=1;arcSize=50;" vertex="1" parent="FcxImMg5sT2_sHitMUej-187">
          <mxGeometry x="130" width="100" height="40" as="geometry" />
        </mxCell>
        <mxCell id="FcxImMg5sT2_sHitMUej-179" value="&lt;font style=&quot;font-size: 20px;&quot;&gt;总视频&lt;/font&gt;" style="rounded=1;whiteSpace=wrap;html=1;arcSize=50;" vertex="1" parent="FcxImMg5sT2_sHitMUej-187">
          <mxGeometry x="260" y="30" width="100" height="40" as="geometry" />
        </mxCell>
        <mxCell id="FcxImMg5sT2_sHitMUej-180" value="&lt;font style=&quot;font-size: 20px;&quot;&gt;学生ID&lt;/font&gt;" style="rounded=1;whiteSpace=wrap;html=1;arcSize=50;" vertex="1" parent="FcxImMg5sT2_sHitMUej-187">
          <mxGeometry y="30" width="100" height="40" as="geometry" />
        </mxCell>
        <mxCell id="FcxImMg5sT2_sHitMUej-181" value="&lt;span style=&quot;font-size: 20px;&quot;&gt;完成视频&lt;/span&gt;" style="rounded=1;whiteSpace=wrap;html=1;arcSize=50;" vertex="1" parent="FcxImMg5sT2_sHitMUej-187">
          <mxGeometry y="170" width="100" height="40" as="geometry" />
        </mxCell>
        <mxCell id="FcxImMg5sT2_sHitMUej-182" value="&lt;font style=&quot;font-size: 20px;&quot;&gt;总观看时长&lt;/font&gt;" style="rounded=1;whiteSpace=wrap;html=1;arcSize=50;" vertex="1" parent="FcxImMg5sT2_sHitMUej-187">
          <mxGeometry y="95" width="100" height="50" as="geometry" />
        </mxCell>
        <mxCell id="FcxImMg5sT2_sHitMUej-183" value="&lt;span style=&quot;font-size: 20px;&quot;&gt;创建时间&lt;/span&gt;" style="rounded=1;whiteSpace=wrap;html=1;arcSize=50;" vertex="1" parent="FcxImMg5sT2_sHitMUej-187">
          <mxGeometry x="260" y="100" width="100" height="40" as="geometry" />
        </mxCell>
        <mxCell id="FcxImMg5sT2_sHitMUej-184" value="&lt;span style=&quot;font-size: 20px;&quot;&gt;更新时间&lt;/span&gt;" style="rounded=1;whiteSpace=wrap;html=1;arcSize=50;" vertex="1" parent="FcxImMg5sT2_sHitMUej-187">
          <mxGeometry x="260" y="170" width="100" height="40" as="geometry" />
        </mxCell>
        <mxCell id="FcxImMg5sT2_sHitMUej-185" value="&lt;font style=&quot;font-size: 20px;&quot;&gt;最后观看时间&lt;/font&gt;" style="rounded=1;whiteSpace=wrap;html=1;arcSize=50;" vertex="1" parent="FcxImMg5sT2_sHitMUej-187">
          <mxGeometry x="130" y="190" width="100" height="50" as="geometry" />
        </mxCell>
        <mxCell id="FcxImMg5sT2_sHitMUej-206" value="" style="group" vertex="1" connectable="0" parent="1">
          <mxGeometry x="850" y="750" width="360" height="240" as="geometry" />
        </mxCell>
        <mxCell id="FcxImMg5sT2_sHitMUej-189" value="" style="edgeStyle=orthogonalEdgeStyle;rounded=0;orthogonalLoop=1;jettySize=auto;html=1;endArrow=none;startFill=0;" edge="1" parent="FcxImMg5sT2_sHitMUej-206" source="FcxImMg5sT2_sHitMUej-197" target="FcxImMg5sT2_sHitMUej-198">
          <mxGeometry relative="1" as="geometry" />
        </mxCell>
        <mxCell id="FcxImMg5sT2_sHitMUej-190" style="rounded=0;orthogonalLoop=1;jettySize=auto;html=1;exitX=0;exitY=0.5;exitDx=0;exitDy=0;entryX=1;entryY=0.5;entryDx=0;entryDy=0;endArrow=none;startFill=0;" edge="1" parent="FcxImMg5sT2_sHitMUej-206" source="FcxImMg5sT2_sHitMUej-197" target="FcxImMg5sT2_sHitMUej-200">
          <mxGeometry relative="1" as="geometry" />
        </mxCell>
        <mxCell id="FcxImMg5sT2_sHitMUej-191" style="rounded=0;orthogonalLoop=1;jettySize=auto;html=1;exitX=1;exitY=0.5;exitDx=0;exitDy=0;entryX=0;entryY=0.75;entryDx=0;entryDy=0;endArrow=none;startFill=0;" edge="1" parent="FcxImMg5sT2_sHitMUej-206" source="FcxImMg5sT2_sHitMUej-197" target="FcxImMg5sT2_sHitMUej-199">
          <mxGeometry relative="1" as="geometry" />
        </mxCell>
        <mxCell id="FcxImMg5sT2_sHitMUej-192" style="rounded=0;orthogonalLoop=1;jettySize=auto;html=1;exitX=1;exitY=0.5;exitDx=0;exitDy=0;entryX=0;entryY=0.5;entryDx=0;entryDy=0;endArrow=none;startFill=0;" edge="1" parent="FcxImMg5sT2_sHitMUej-206" source="FcxImMg5sT2_sHitMUej-197" target="FcxImMg5sT2_sHitMUej-203">
          <mxGeometry relative="1" as="geometry" />
        </mxCell>
        <mxCell id="FcxImMg5sT2_sHitMUej-193" style="rounded=0;orthogonalLoop=1;jettySize=auto;html=1;exitX=0;exitY=0.5;exitDx=0;exitDy=0;entryX=1;entryY=0.5;entryDx=0;entryDy=0;endArrow=none;startFill=0;" edge="1" parent="FcxImMg5sT2_sHitMUej-206" source="FcxImMg5sT2_sHitMUej-197" target="FcxImMg5sT2_sHitMUej-202">
          <mxGeometry relative="1" as="geometry" />
        </mxCell>
        <mxCell id="FcxImMg5sT2_sHitMUej-194" style="rounded=0;orthogonalLoop=1;jettySize=auto;html=1;exitX=0;exitY=0.5;exitDx=0;exitDy=0;entryX=1;entryY=0.5;entryDx=0;entryDy=0;endArrow=none;startFill=0;" edge="1" parent="FcxImMg5sT2_sHitMUej-206" source="FcxImMg5sT2_sHitMUej-197" target="FcxImMg5sT2_sHitMUej-201">
          <mxGeometry relative="1" as="geometry" />
        </mxCell>
        <mxCell id="FcxImMg5sT2_sHitMUej-195" style="rounded=0;orthogonalLoop=1;jettySize=auto;html=1;exitX=1;exitY=0.5;exitDx=0;exitDy=0;entryX=0;entryY=0.5;entryDx=0;entryDy=0;endArrow=none;startFill=0;" edge="1" parent="FcxImMg5sT2_sHitMUej-206" source="FcxImMg5sT2_sHitMUej-197" target="FcxImMg5sT2_sHitMUej-204">
          <mxGeometry relative="1" as="geometry" />
        </mxCell>
        <mxCell id="FcxImMg5sT2_sHitMUej-196" style="rounded=0;orthogonalLoop=1;jettySize=auto;html=1;exitX=0.5;exitY=1;exitDx=0;exitDy=0;entryX=0.5;entryY=0;entryDx=0;entryDy=0;endArrow=none;startFill=0;" edge="1" parent="FcxImMg5sT2_sHitMUej-206" source="FcxImMg5sT2_sHitMUej-197" target="FcxImMg5sT2_sHitMUej-205">
          <mxGeometry relative="1" as="geometry" />
        </mxCell>
        <mxCell id="FcxImMg5sT2_sHitMUej-197" value="&lt;span style=&quot;font-size: 20px;&quot;&gt;学习报告表&lt;/span&gt;" style="rounded=0;whiteSpace=wrap;html=1;" vertex="1" parent="FcxImMg5sT2_sHitMUej-206">
          <mxGeometry x="120" y="90" width="120" height="60" as="geometry" />
        </mxCell>
        <mxCell id="FcxImMg5sT2_sHitMUej-198" value="&lt;font style=&quot;font-size: 20px;&quot;&gt;&lt;u&gt;主键ID&lt;/u&gt;&lt;/font&gt;" style="rounded=1;whiteSpace=wrap;html=1;arcSize=50;" vertex="1" parent="FcxImMg5sT2_sHitMUej-206">
          <mxGeometry x="130" width="100" height="40" as="geometry" />
        </mxCell>
        <mxCell id="FcxImMg5sT2_sHitMUej-199" value="&lt;font style=&quot;font-size: 20px;&quot;&gt;报告日期&lt;/font&gt;" style="rounded=1;whiteSpace=wrap;html=1;arcSize=50;" vertex="1" parent="FcxImMg5sT2_sHitMUej-206">
          <mxGeometry x="260" y="30" width="100" height="40" as="geometry" />
        </mxCell>
        <mxCell id="FcxImMg5sT2_sHitMUej-200" value="&lt;font style=&quot;font-size: 20px;&quot;&gt;学生ID&lt;/font&gt;" style="rounded=1;whiteSpace=wrap;html=1;arcSize=50;" vertex="1" parent="FcxImMg5sT2_sHitMUej-206">
          <mxGeometry y="30" width="100" height="40" as="geometry" />
        </mxCell>
        <mxCell id="FcxImMg5sT2_sHitMUej-201" value="&lt;span style=&quot;font-size: 20px;&quot;&gt;完成视频&lt;/span&gt;" style="rounded=1;whiteSpace=wrap;html=1;arcSize=50;" vertex="1" parent="FcxImMg5sT2_sHitMUej-206">
          <mxGeometry y="170" width="100" height="40" as="geometry" />
        </mxCell>
        <mxCell id="FcxImMg5sT2_sHitMUej-202" value="&lt;font style=&quot;font-size: 20px;&quot;&gt;观看时长&lt;/font&gt;" style="rounded=1;whiteSpace=wrap;html=1;arcSize=50;" vertex="1" parent="FcxImMg5sT2_sHitMUej-206">
          <mxGeometry y="100" width="100" height="40" as="geometry" />
        </mxCell>
        <mxCell id="FcxImMg5sT2_sHitMUej-203" value="&lt;span style=&quot;font-size: 20px;&quot;&gt;创建时间&lt;/span&gt;" style="rounded=1;whiteSpace=wrap;html=1;arcSize=50;" vertex="1" parent="FcxImMg5sT2_sHitMUej-206">
          <mxGeometry x="260" y="100" width="100" height="40" as="geometry" />
        </mxCell>
        <mxCell id="FcxImMg5sT2_sHitMUej-204" value="&lt;span style=&quot;font-size: 20px;&quot;&gt;报告类型&lt;/span&gt;" style="rounded=1;whiteSpace=wrap;html=1;arcSize=50;" vertex="1" parent="FcxImMg5sT2_sHitMUej-206">
          <mxGeometry x="260" y="170" width="100" height="40" as="geometry" />
        </mxCell>
        <mxCell id="FcxImMg5sT2_sHitMUej-205" value="&lt;font style=&quot;font-size: 20px;&quot;&gt;学习建议&lt;/font&gt;" style="rounded=1;whiteSpace=wrap;html=1;arcSize=50;" vertex="1" parent="FcxImMg5sT2_sHitMUej-206">
          <mxGeometry x="130" y="200" width="100" height="40" as="geometry" />
        </mxCell>
        <mxCell id="FcxImMg5sT2_sHitMUej-217" style="rounded=0;orthogonalLoop=1;jettySize=auto;html=1;entryX=0.5;entryY=0;entryDx=0;entryDy=0;endArrow=none;startFill=0;" edge="1" parent="1" source="FcxImMg5sT2_sHitMUej-207" target="FcxImMg5sT2_sHitMUej-216">
          <mxGeometry relative="1" as="geometry" />
        </mxCell>
        <mxCell id="FcxImMg5sT2_sHitMUej-218" value="&lt;font style=&quot;font-size: 20px;&quot;&gt;1&lt;/font&gt;" style="edgeLabel;html=1;align=center;verticalAlign=middle;resizable=0;points=[];" vertex="1" connectable="0" parent="FcxImMg5sT2_sHitMUej-217">
          <mxGeometry x="0.0354" y="4" relative="1" as="geometry">
            <mxPoint x="-4" y="-8" as="offset" />
          </mxGeometry>
        </mxCell>
        <mxCell id="FcxImMg5sT2_sHitMUej-207" value="&lt;font style=&quot;font-size: 20px;&quot;&gt;教师&lt;/font&gt;&lt;span style=&quot;font-size: 20px;&quot;&gt;表&lt;/span&gt;" style="rounded=0;whiteSpace=wrap;html=1;" vertex="1" parent="1">
          <mxGeometry x="590" y="1410" width="120" height="60" as="geometry" />
        </mxCell>
        <mxCell id="FcxImMg5sT2_sHitMUej-208" value="&lt;span style=&quot;font-size: 20px;&quot;&gt;学习进度表&lt;/span&gt;" style="rounded=0;whiteSpace=wrap;html=1;" vertex="1" parent="1">
          <mxGeometry x="370" y="2000" width="120" height="60" as="geometry" />
        </mxCell>
        <mxCell id="FcxImMg5sT2_sHitMUej-209" value="&lt;span style=&quot;font-size: 20px;&quot;&gt;收藏表&lt;/span&gt;" style="rounded=0;whiteSpace=wrap;html=1;" vertex="1" parent="1">
          <mxGeometry x="1180" y="1455" width="120" height="60" as="geometry" />
        </mxCell>
        <mxCell id="FcxImMg5sT2_sHitMUej-210" value="&lt;span style=&quot;font-size: 20px;&quot;&gt;评论表&lt;/span&gt;" style="rounded=0;whiteSpace=wrap;html=1;" vertex="1" parent="1">
          <mxGeometry x="1180" y="1765" width="120" height="60" as="geometry" />
        </mxCell>
        <mxCell id="FcxImMg5sT2_sHitMUej-211" value="&lt;span style=&quot;font-size: 20px;&quot;&gt;视频表&lt;/span&gt;" style="rounded=0;whiteSpace=wrap;html=1;" vertex="1" parent="1">
          <mxGeometry x="590" y="1720" width="120" height="60" as="geometry" />
        </mxCell>
        <mxCell id="FcxImMg5sT2_sHitMUej-212" value="&lt;span style=&quot;font-size: 20px;&quot;&gt;点赞表&lt;/span&gt;" style="rounded=0;whiteSpace=wrap;html=1;" vertex="1" parent="1">
          <mxGeometry x="1180" y="1615" width="120" height="60" as="geometry" />
        </mxCell>
        <mxCell id="FcxImMg5sT2_sHitMUej-226" style="rounded=0;orthogonalLoop=1;jettySize=auto;html=1;endArrow=none;startFill=0;entryX=0;entryY=0.5;entryDx=0;entryDy=0;exitX=1;exitY=0.5;exitDx=0;exitDy=0;" edge="1" parent="1" source="FcxImMg5sT2_sHitMUej-213" target="FcxImMg5sT2_sHitMUej-221">
          <mxGeometry relative="1" as="geometry" />
        </mxCell>
        <mxCell id="FcxImMg5sT2_sHitMUej-233" value="&lt;font style=&quot;font-size: 20px;&quot;&gt;1&lt;/font&gt;" style="edgeLabel;html=1;align=center;verticalAlign=middle;resizable=0;points=[];" vertex="1" connectable="0" parent="FcxImMg5sT2_sHitMUej-226">
          <mxGeometry x="0.0124" y="-1" relative="1" as="geometry">
            <mxPoint as="offset" />
          </mxGeometry>
        </mxCell>
        <mxCell id="FcxImMg5sT2_sHitMUej-213" value="&lt;span style=&quot;font-size: 20px;&quot;&gt;学生表&lt;/span&gt;" style="rounded=0;whiteSpace=wrap;html=1;" vertex="1" parent="1">
          <mxGeometry x="590" y="1860" width="120" height="60" as="geometry" />
        </mxCell>
        <mxCell id="FcxImMg5sT2_sHitMUej-214" value="&lt;span style=&quot;font-size: 20px;&quot;&gt;学习报告表&lt;/span&gt;" style="rounded=0;whiteSpace=wrap;html=1;" vertex="1" parent="1">
          <mxGeometry x="1120" y="2000" width="120" height="60" as="geometry" />
        </mxCell>
        <mxCell id="FcxImMg5sT2_sHitMUej-215" value="&lt;span style=&quot;font-size: 20px;&quot;&gt;学习统计表&lt;/span&gt;" style="rounded=0;whiteSpace=wrap;html=1;" vertex="1" parent="1">
          <mxGeometry x="710" y="2000" width="120" height="60" as="geometry" />
        </mxCell>
        <mxCell id="FcxImMg5sT2_sHitMUej-216" value="&lt;font style=&quot;font-size: 20px;&quot;&gt;发布/上传&lt;/font&gt;" style="rhombus;whiteSpace=wrap;html=1;" vertex="1" parent="1">
          <mxGeometry x="590" y="1550" width="120" height="70" as="geometry" />
        </mxCell>
        <mxCell id="FcxImMg5sT2_sHitMUej-219" style="rounded=0;orthogonalLoop=1;jettySize=auto;html=1;endArrow=none;startFill=0;exitX=0.5;exitY=0;exitDx=0;exitDy=0;entryX=0.5;entryY=1;entryDx=0;entryDy=0;" edge="1" parent="1" source="FcxImMg5sT2_sHitMUej-211" target="FcxImMg5sT2_sHitMUej-216">
          <mxGeometry relative="1" as="geometry">
            <mxPoint x="735" y="1467" as="sourcePoint" />
            <mxPoint x="610" y="1580" as="targetPoint" />
          </mxGeometry>
        </mxCell>
        <mxCell id="FcxImMg5sT2_sHitMUej-220" value="&lt;font style=&quot;font-size: 20px;&quot;&gt;N&lt;/font&gt;" style="edgeLabel;html=1;align=center;verticalAlign=middle;resizable=0;points=[];" vertex="1" connectable="0" parent="FcxImMg5sT2_sHitMUej-219">
          <mxGeometry x="0.0354" y="4" relative="1" as="geometry">
            <mxPoint x="2" y="-8" as="offset" />
          </mxGeometry>
        </mxCell>
        <mxCell id="FcxImMg5sT2_sHitMUej-221" value="&lt;font style=&quot;font-size: 20px;&quot;&gt;评论&lt;/font&gt;" style="rhombus;whiteSpace=wrap;html=1;" vertex="1" parent="1">
          <mxGeometry x="970" y="1760" width="120" height="70" as="geometry" />
        </mxCell>
        <mxCell id="FcxImMg5sT2_sHitMUej-222" value="&lt;font style=&quot;font-size: 20px;&quot;&gt;点赞&lt;/font&gt;" style="rhombus;whiteSpace=wrap;html=1;" vertex="1" parent="1">
          <mxGeometry x="980" y="1610" width="120" height="70" as="geometry" />
        </mxCell>
        <mxCell id="FcxImMg5sT2_sHitMUej-223" value="&lt;font style=&quot;font-size: 20px;&quot;&gt;收藏&lt;/font&gt;" style="rhombus;whiteSpace=wrap;html=1;" vertex="1" parent="1">
          <mxGeometry x="980" y="1450" width="120" height="70" as="geometry" />
        </mxCell>
        <mxCell id="FcxImMg5sT2_sHitMUej-228" style="rounded=0;orthogonalLoop=1;jettySize=auto;html=1;endArrow=none;startFill=0;exitX=1;exitY=0.5;exitDx=0;exitDy=0;entryX=0;entryY=0.5;entryDx=0;entryDy=0;" edge="1" parent="1" source="FcxImMg5sT2_sHitMUej-221" target="FcxImMg5sT2_sHitMUej-210">
          <mxGeometry relative="1" as="geometry">
            <mxPoint x="660" y="1730" as="sourcePoint" />
            <mxPoint x="660" y="1630" as="targetPoint" />
          </mxGeometry>
        </mxCell>
        <mxCell id="FcxImMg5sT2_sHitMUej-229" value="&lt;font style=&quot;font-size: 20px;&quot;&gt;N&lt;/font&gt;" style="edgeLabel;html=1;align=center;verticalAlign=middle;resizable=0;points=[];" vertex="1" connectable="0" parent="FcxImMg5sT2_sHitMUej-228">
          <mxGeometry x="0.0354" y="4" relative="1" as="geometry">
            <mxPoint x="6" y="2" as="offset" />
          </mxGeometry>
        </mxCell>
        <mxCell id="FcxImMg5sT2_sHitMUej-230" style="rounded=0;orthogonalLoop=1;jettySize=auto;html=1;endArrow=none;startFill=0;entryX=0;entryY=0.5;entryDx=0;entryDy=0;exitX=1;exitY=0.5;exitDx=0;exitDy=0;" edge="1" parent="1" source="FcxImMg5sT2_sHitMUej-211" target="FcxImMg5sT2_sHitMUej-221">
          <mxGeometry relative="1" as="geometry">
            <mxPoint x="720" y="1876" as="sourcePoint" />
            <mxPoint x="820" y="1835" as="targetPoint" />
          </mxGeometry>
        </mxCell>
        <mxCell id="FcxImMg5sT2_sHitMUej-232" value="&lt;font style=&quot;font-size: 20px;&quot;&gt;1&lt;/font&gt;" style="edgeLabel;html=1;align=center;verticalAlign=middle;resizable=0;points=[];" vertex="1" connectable="0" parent="FcxImMg5sT2_sHitMUej-230">
          <mxGeometry x="-0.1264" y="2" relative="1" as="geometry">
            <mxPoint as="offset" />
          </mxGeometry>
        </mxCell>
        <mxCell id="FcxImMg5sT2_sHitMUej-234" style="rounded=0;orthogonalLoop=1;jettySize=auto;html=1;endArrow=none;startFill=0;entryX=0;entryY=0.5;entryDx=0;entryDy=0;exitX=1;exitY=0.5;exitDx=0;exitDy=0;" edge="1" parent="1" source="FcxImMg5sT2_sHitMUej-207" target="FcxImMg5sT2_sHitMUej-221">
          <mxGeometry relative="1" as="geometry">
            <mxPoint x="720" y="1760" as="sourcePoint" />
            <mxPoint x="980" y="1805" as="targetPoint" />
          </mxGeometry>
        </mxCell>
        <mxCell id="FcxImMg5sT2_sHitMUej-235" value="&lt;font style=&quot;font-size: 20px;&quot;&gt;1&lt;/font&gt;" style="edgeLabel;html=1;align=center;verticalAlign=middle;resizable=0;points=[];" vertex="1" connectable="0" parent="FcxImMg5sT2_sHitMUej-234">
          <mxGeometry x="-0.1264" y="2" relative="1" as="geometry">
            <mxPoint as="offset" />
          </mxGeometry>
        </mxCell>
        <mxCell id="FcxImMg5sT2_sHitMUej-236" style="rounded=0;orthogonalLoop=1;jettySize=auto;html=1;endArrow=none;startFill=0;entryX=0;entryY=0.5;entryDx=0;entryDy=0;exitX=1;exitY=0.5;exitDx=0;exitDy=0;" edge="1" parent="1" source="FcxImMg5sT2_sHitMUej-213" target="FcxImMg5sT2_sHitMUej-222">
          <mxGeometry relative="1" as="geometry">
            <mxPoint x="680" y="1610" as="sourcePoint" />
            <mxPoint x="940" y="1533" as="targetPoint" />
          </mxGeometry>
        </mxCell>
        <mxCell id="FcxImMg5sT2_sHitMUej-237" value="&lt;font style=&quot;font-size: 20px;&quot;&gt;1&lt;/font&gt;" style="edgeLabel;html=1;align=center;verticalAlign=middle;resizable=0;points=[];" vertex="1" connectable="0" parent="FcxImMg5sT2_sHitMUej-236">
          <mxGeometry x="0.0124" y="-1" relative="1" as="geometry">
            <mxPoint as="offset" />
          </mxGeometry>
        </mxCell>
        <mxCell id="FcxImMg5sT2_sHitMUej-238" style="rounded=0;orthogonalLoop=1;jettySize=auto;html=1;endArrow=none;startFill=0;entryX=0;entryY=0.5;entryDx=0;entryDy=0;exitX=1;exitY=0.5;exitDx=0;exitDy=0;" edge="1" parent="1" source="FcxImMg5sT2_sHitMUej-211" target="FcxImMg5sT2_sHitMUej-222">
          <mxGeometry relative="1" as="geometry">
            <mxPoint x="680" y="1488" as="sourcePoint" />
            <mxPoint x="940" y="1533" as="targetPoint" />
          </mxGeometry>
        </mxCell>
        <mxCell id="FcxImMg5sT2_sHitMUej-239" value="&lt;font style=&quot;font-size: 20px;&quot;&gt;1&lt;/font&gt;" style="edgeLabel;html=1;align=center;verticalAlign=middle;resizable=0;points=[];" vertex="1" connectable="0" parent="FcxImMg5sT2_sHitMUej-238">
          <mxGeometry x="-0.1264" y="2" relative="1" as="geometry">
            <mxPoint as="offset" />
          </mxGeometry>
        </mxCell>
        <mxCell id="FcxImMg5sT2_sHitMUej-240" style="rounded=0;orthogonalLoop=1;jettySize=auto;html=1;endArrow=none;startFill=0;entryX=0;entryY=0.5;entryDx=0;entryDy=0;exitX=1;exitY=0.5;exitDx=0;exitDy=0;" edge="1" parent="1" source="FcxImMg5sT2_sHitMUej-207" target="FcxImMg5sT2_sHitMUej-222">
          <mxGeometry relative="1" as="geometry">
            <mxPoint x="680" y="1178" as="sourcePoint" />
            <mxPoint x="940" y="1533" as="targetPoint" />
          </mxGeometry>
        </mxCell>
        <mxCell id="FcxImMg5sT2_sHitMUej-241" value="&lt;font style=&quot;font-size: 20px;&quot;&gt;1&lt;/font&gt;" style="edgeLabel;html=1;align=center;verticalAlign=middle;resizable=0;points=[];" vertex="1" connectable="0" parent="FcxImMg5sT2_sHitMUej-240">
          <mxGeometry x="-0.1264" y="2" relative="1" as="geometry">
            <mxPoint as="offset" />
          </mxGeometry>
        </mxCell>
        <mxCell id="FcxImMg5sT2_sHitMUej-242" style="rounded=0;orthogonalLoop=1;jettySize=auto;html=1;endArrow=none;startFill=0;entryX=0;entryY=0.5;entryDx=0;entryDy=0;exitX=1;exitY=0.5;exitDx=0;exitDy=0;" edge="1" parent="1" source="FcxImMg5sT2_sHitMUej-213" target="FcxImMg5sT2_sHitMUej-223">
          <mxGeometry relative="1" as="geometry">
            <mxPoint x="710" y="1550" as="sourcePoint" />
            <mxPoint x="970" y="1473" as="targetPoint" />
          </mxGeometry>
        </mxCell>
        <mxCell id="FcxImMg5sT2_sHitMUej-243" value="&lt;font style=&quot;font-size: 20px;&quot;&gt;1&lt;/font&gt;" style="edgeLabel;html=1;align=center;verticalAlign=middle;resizable=0;points=[];" vertex="1" connectable="0" parent="FcxImMg5sT2_sHitMUej-242">
          <mxGeometry x="0.0124" y="-1" relative="1" as="geometry">
            <mxPoint as="offset" />
          </mxGeometry>
        </mxCell>
        <mxCell id="FcxImMg5sT2_sHitMUej-244" style="rounded=0;orthogonalLoop=1;jettySize=auto;html=1;endArrow=none;startFill=0;entryX=0;entryY=0.5;entryDx=0;entryDy=0;exitX=1;exitY=0.5;exitDx=0;exitDy=0;" edge="1" parent="1" source="FcxImMg5sT2_sHitMUej-211" target="FcxImMg5sT2_sHitMUej-223">
          <mxGeometry relative="1" as="geometry">
            <mxPoint x="710" y="1428" as="sourcePoint" />
            <mxPoint x="970" y="1473" as="targetPoint" />
          </mxGeometry>
        </mxCell>
        <mxCell id="FcxImMg5sT2_sHitMUej-245" value="&lt;font style=&quot;font-size: 20px;&quot;&gt;1&lt;/font&gt;" style="edgeLabel;html=1;align=center;verticalAlign=middle;resizable=0;points=[];" vertex="1" connectable="0" parent="FcxImMg5sT2_sHitMUej-244">
          <mxGeometry x="-0.1264" y="2" relative="1" as="geometry">
            <mxPoint as="offset" />
          </mxGeometry>
        </mxCell>
        <mxCell id="FcxImMg5sT2_sHitMUej-246" style="rounded=0;orthogonalLoop=1;jettySize=auto;html=1;endArrow=none;startFill=0;entryX=0;entryY=0.5;entryDx=0;entryDy=0;exitX=1;exitY=0.5;exitDx=0;exitDy=0;" edge="1" parent="1" source="FcxImMg5sT2_sHitMUej-207" target="FcxImMg5sT2_sHitMUej-223">
          <mxGeometry relative="1" as="geometry">
            <mxPoint x="710" y="1118" as="sourcePoint" />
            <mxPoint x="970" y="1473" as="targetPoint" />
          </mxGeometry>
        </mxCell>
        <mxCell id="FcxImMg5sT2_sHitMUej-247" value="&lt;font style=&quot;font-size: 20px;&quot;&gt;1&lt;/font&gt;" style="edgeLabel;html=1;align=center;verticalAlign=middle;resizable=0;points=[];" vertex="1" connectable="0" parent="FcxImMg5sT2_sHitMUej-246">
          <mxGeometry x="-0.1264" y="2" relative="1" as="geometry">
            <mxPoint as="offset" />
          </mxGeometry>
        </mxCell>
        <mxCell id="FcxImMg5sT2_sHitMUej-248" style="rounded=0;orthogonalLoop=1;jettySize=auto;html=1;endArrow=none;startFill=0;exitX=1;exitY=0.5;exitDx=0;exitDy=0;entryX=0;entryY=0.5;entryDx=0;entryDy=0;" edge="1" parent="1" source="FcxImMg5sT2_sHitMUej-222" target="FcxImMg5sT2_sHitMUej-212">
          <mxGeometry relative="1" as="geometry">
            <mxPoint x="1100" y="1805" as="sourcePoint" />
            <mxPoint x="1190" y="1805" as="targetPoint" />
          </mxGeometry>
        </mxCell>
        <mxCell id="FcxImMg5sT2_sHitMUej-249" value="&lt;font style=&quot;font-size: 20px;&quot;&gt;N&lt;/font&gt;" style="edgeLabel;html=1;align=center;verticalAlign=middle;resizable=0;points=[];" vertex="1" connectable="0" parent="FcxImMg5sT2_sHitMUej-248">
          <mxGeometry x="0.0354" y="4" relative="1" as="geometry">
            <mxPoint x="6" y="2" as="offset" />
          </mxGeometry>
        </mxCell>
        <mxCell id="FcxImMg5sT2_sHitMUej-250" style="rounded=0;orthogonalLoop=1;jettySize=auto;html=1;endArrow=none;startFill=0;exitX=1;exitY=0.5;exitDx=0;exitDy=0;entryX=0;entryY=0.5;entryDx=0;entryDy=0;" edge="1" parent="1" source="FcxImMg5sT2_sHitMUej-223" target="FcxImMg5sT2_sHitMUej-209">
          <mxGeometry relative="1" as="geometry">
            <mxPoint x="1110" y="1815" as="sourcePoint" />
            <mxPoint x="1200" y="1815" as="targetPoint" />
          </mxGeometry>
        </mxCell>
        <mxCell id="FcxImMg5sT2_sHitMUej-251" value="&lt;font style=&quot;font-size: 20px;&quot;&gt;N&lt;/font&gt;" style="edgeLabel;html=1;align=center;verticalAlign=middle;resizable=0;points=[];" vertex="1" connectable="0" parent="FcxImMg5sT2_sHitMUej-250">
          <mxGeometry x="0.0354" y="4" relative="1" as="geometry">
            <mxPoint x="6" y="2" as="offset" />
          </mxGeometry>
        </mxCell>
        <mxCell id="FcxImMg5sT2_sHitMUej-252" value="&lt;font style=&quot;font-size: 20px;&quot;&gt;学习&lt;/font&gt;" style="rhombus;whiteSpace=wrap;html=1;" vertex="1" parent="1">
          <mxGeometry x="370" y="1855" width="120" height="70" as="geometry" />
        </mxCell>
        <mxCell id="FcxImMg5sT2_sHitMUej-253" style="rounded=0;orthogonalLoop=1;jettySize=auto;html=1;endArrow=none;startFill=0;entryX=1;entryY=0.5;entryDx=0;entryDy=0;exitX=0;exitY=0.5;exitDx=0;exitDy=0;" edge="1" parent="1" source="FcxImMg5sT2_sHitMUej-213" target="FcxImMg5sT2_sHitMUej-252">
          <mxGeometry relative="1" as="geometry">
            <mxPoint x="720" y="1900" as="sourcePoint" />
            <mxPoint x="980" y="1805" as="targetPoint" />
          </mxGeometry>
        </mxCell>
        <mxCell id="FcxImMg5sT2_sHitMUej-254" value="&lt;font style=&quot;font-size: 20px;&quot;&gt;1&lt;/font&gt;" style="edgeLabel;html=1;align=center;verticalAlign=middle;resizable=0;points=[];" vertex="1" connectable="0" parent="FcxImMg5sT2_sHitMUej-253">
          <mxGeometry x="0.0124" y="-1" relative="1" as="geometry">
            <mxPoint as="offset" />
          </mxGeometry>
        </mxCell>
        <mxCell id="FcxImMg5sT2_sHitMUej-255" style="rounded=0;orthogonalLoop=1;jettySize=auto;html=1;endArrow=none;startFill=0;entryX=1;entryY=0.5;entryDx=0;entryDy=0;exitX=0;exitY=0.5;exitDx=0;exitDy=0;" edge="1" parent="1" source="FcxImMg5sT2_sHitMUej-211" target="FcxImMg5sT2_sHitMUej-252">
          <mxGeometry relative="1" as="geometry">
            <mxPoint x="730" y="1910" as="sourcePoint" />
            <mxPoint x="990" y="1815" as="targetPoint" />
          </mxGeometry>
        </mxCell>
        <mxCell id="FcxImMg5sT2_sHitMUej-256" value="&lt;font style=&quot;font-size: 20px;&quot;&gt;1&lt;/font&gt;" style="edgeLabel;html=1;align=center;verticalAlign=middle;resizable=0;points=[];" vertex="1" connectable="0" parent="FcxImMg5sT2_sHitMUej-255">
          <mxGeometry x="0.0124" y="-1" relative="1" as="geometry">
            <mxPoint as="offset" />
          </mxGeometry>
        </mxCell>
        <mxCell id="FcxImMg5sT2_sHitMUej-257" style="rounded=0;orthogonalLoop=1;jettySize=auto;html=1;endArrow=none;startFill=0;exitX=0.5;exitY=1;exitDx=0;exitDy=0;entryX=0.5;entryY=0;entryDx=0;entryDy=0;" edge="1" parent="1" source="FcxImMg5sT2_sHitMUej-252" target="FcxImMg5sT2_sHitMUej-208">
          <mxGeometry relative="1" as="geometry">
            <mxPoint x="1100" y="1805" as="sourcePoint" />
            <mxPoint x="1190" y="1805" as="targetPoint" />
          </mxGeometry>
        </mxCell>
        <mxCell id="FcxImMg5sT2_sHitMUej-258" value="&lt;font style=&quot;font-size: 20px;&quot;&gt;N&lt;/font&gt;" style="edgeLabel;html=1;align=center;verticalAlign=middle;resizable=0;points=[];" vertex="1" connectable="0" parent="FcxImMg5sT2_sHitMUej-257">
          <mxGeometry x="0.0354" y="4" relative="1" as="geometry">
            <mxPoint x="-4" y="2" as="offset" />
          </mxGeometry>
        </mxCell>
        <mxCell id="FcxImMg5sT2_sHitMUej-259" value="&lt;span style=&quot;font-size: 20px;&quot;&gt;统计&lt;/span&gt;" style="rhombus;whiteSpace=wrap;html=1;" vertex="1" parent="1">
          <mxGeometry x="550" y="1995" width="120" height="70" as="geometry" />
        </mxCell>
        <mxCell id="FcxImMg5sT2_sHitMUej-260" style="rounded=0;orthogonalLoop=1;jettySize=auto;html=1;endArrow=none;startFill=0;entryX=1;entryY=0.5;entryDx=0;entryDy=0;exitX=0;exitY=0.5;exitDx=0;exitDy=0;" edge="1" parent="1" source="FcxImMg5sT2_sHitMUej-259" target="FcxImMg5sT2_sHitMUej-208">
          <mxGeometry relative="1" as="geometry">
            <mxPoint x="600" y="1900" as="sourcePoint" />
            <mxPoint x="500" y="1900" as="targetPoint" />
          </mxGeometry>
        </mxCell>
        <mxCell id="FcxImMg5sT2_sHitMUej-261" value="&lt;font style=&quot;font-size: 20px;&quot;&gt;N&lt;/font&gt;" style="edgeLabel;html=1;align=center;verticalAlign=middle;resizable=0;points=[];" vertex="1" connectable="0" parent="FcxImMg5sT2_sHitMUej-260">
          <mxGeometry x="0.0124" y="-1" relative="1" as="geometry">
            <mxPoint as="offset" />
          </mxGeometry>
        </mxCell>
        <mxCell id="FcxImMg5sT2_sHitMUej-262" style="rounded=0;orthogonalLoop=1;jettySize=auto;html=1;endArrow=none;startFill=0;entryX=1;entryY=0.5;entryDx=0;entryDy=0;exitX=0;exitY=0.5;exitDx=0;exitDy=0;" edge="1" parent="1" source="FcxImMg5sT2_sHitMUej-215" target="FcxImMg5sT2_sHitMUej-259">
          <mxGeometry relative="1" as="geometry">
            <mxPoint x="600" y="1900" as="sourcePoint" />
            <mxPoint x="500" y="1900" as="targetPoint" />
          </mxGeometry>
        </mxCell>
        <mxCell id="FcxImMg5sT2_sHitMUej-263" value="&lt;font style=&quot;font-size: 20px;&quot;&gt;1&lt;/font&gt;" style="edgeLabel;html=1;align=center;verticalAlign=middle;resizable=0;points=[];" vertex="1" connectable="0" parent="FcxImMg5sT2_sHitMUej-262">
          <mxGeometry x="0.0124" y="-1" relative="1" as="geometry">
            <mxPoint as="offset" />
          </mxGeometry>
        </mxCell>
        <mxCell id="FcxImMg5sT2_sHitMUej-264" value="&lt;span style=&quot;font-size: 20px;&quot;&gt;生成&lt;/span&gt;" style="rhombus;whiteSpace=wrap;html=1;" vertex="1" parent="1">
          <mxGeometry x="930" y="1995" width="120" height="70" as="geometry" />
        </mxCell>
        <mxCell id="FcxImMg5sT2_sHitMUej-265" style="rounded=0;orthogonalLoop=1;jettySize=auto;html=1;endArrow=none;startFill=0;entryX=1;entryY=0.5;entryDx=0;entryDy=0;exitX=0;exitY=0.5;exitDx=0;exitDy=0;" edge="1" parent="1" source="FcxImMg5sT2_sHitMUej-264" target="FcxImMg5sT2_sHitMUej-215">
          <mxGeometry relative="1" as="geometry">
            <mxPoint x="940" y="1995" as="sourcePoint" />
            <mxPoint x="830" y="2125" as="targetPoint" />
          </mxGeometry>
        </mxCell>
        <mxCell id="FcxImMg5sT2_sHitMUej-266" value="&lt;font style=&quot;font-size: 20px;&quot;&gt;N&lt;/font&gt;" style="edgeLabel;html=1;align=center;verticalAlign=middle;resizable=0;points=[];" vertex="1" connectable="0" parent="FcxImMg5sT2_sHitMUej-265">
          <mxGeometry x="0.0124" y="-1" relative="1" as="geometry">
            <mxPoint as="offset" />
          </mxGeometry>
        </mxCell>
        <mxCell id="FcxImMg5sT2_sHitMUej-267" style="rounded=0;orthogonalLoop=1;jettySize=auto;html=1;endArrow=none;startFill=0;entryX=1;entryY=0.5;entryDx=0;entryDy=0;exitX=0;exitY=0.5;exitDx=0;exitDy=0;" edge="1" parent="1" source="FcxImMg5sT2_sHitMUej-214" target="FcxImMg5sT2_sHitMUej-264">
          <mxGeometry relative="1" as="geometry">
            <mxPoint x="720" y="2040" as="sourcePoint" />
            <mxPoint x="680" y="2040" as="targetPoint" />
          </mxGeometry>
        </mxCell>
        <mxCell id="FcxImMg5sT2_sHitMUej-268" value="&lt;font style=&quot;font-size: 20px;&quot;&gt;1&lt;/font&gt;" style="edgeLabel;html=1;align=center;verticalAlign=middle;resizable=0;points=[];" vertex="1" connectable="0" parent="FcxImMg5sT2_sHitMUej-267">
          <mxGeometry x="0.0124" y="-1" relative="1" as="geometry">
            <mxPoint as="offset" />
          </mxGeometry>
        </mxCell>
      </root>
    </mxGraphModel>
  </diagram>
</mxfile>
